<?xml version="1.0" encoding="utf-8"?>
<svg id="master-artboard" viewBox="0 0 427 540" version="1.0" xmlns="http://www.w3.org/2000/svg" x="0px" y="0px" width="427px" height="540px" enable-background="new 0 0 2800 2040"><rect id="ee-background" x="0" y="0" width="427" height="540" style="fill: white; fill-opacity: 0; pointer-events: none;"/>
<metadata><!--?xpacket begin="﻿" id="W5M0MpCehiHzreSzNTczkc9d"?-->

                                                                                                    
                                                                                                    
                                                                                                    
                                                                                                    
                                                                                                    
                                                                                                    
                                                                                                    
                                                                                                    
                                                                                                    
                                                                                                    
                                                                                                    
                                                                                                    
                                                                                                    
                                                                                                    
                                                                                                    
                                                                                                    
                                                                                                    
                                                                                                    
                                                                                                    
                                                                                                    
                           
<!--?xpacket end="w"?-->
	</metadata>




<path fill-rule="evenodd" clip-rule="evenodd" fill="#1582B6" d="M601.767,1387.354c0,0-36.721-58.951-38.896-66.925&#10;&#9;&#9;c-2.173-8.215,14.735-8.456,35.755-2.655c21.02,5.56,21.985-21.015,37.449-17.636c15.459,3.379,16.666,18.36,37.444,16.43&#10;&#9;&#9;c21.016-1.939,40.104-1.448,37.687,11.594c-2.414,13.283-40.828,47.831-38.894,61.847c1.932,13.767,70.541,36.721,95.909,138.668&#10;&#9;&#9;c25.364,101.956,10.387,142.297-35.031,152.684c-45.418,10.629-191.822,12.568-218.639-21.498&#10;&#9;&#9;c-26.812-34.065-29.229-80.932,2.418-152.2C548.375,1436.393,601.767,1387.354,601.767,1387.354L601.767,1387.354z" transform="matrix(1, 0, 0, 1, -382.1908337571185, -1296.0189170353565)"/><path fill-rule="evenodd" clip-rule="evenodd" fill="#0F75A4" d="M641.146,1301.828c11.111,5.077,14.253,16.43,32.372,14.74&#10;&#9;&#9;c21.016-1.939,40.104-1.448,37.687,11.594c-2.414,13.283-40.828,47.831-38.894,61.847c1.932,13.767,70.541,36.721,95.909,138.668&#10;&#9;&#9;c25.364,101.956,10.387,142.297-35.031,152.684c-16.425,3.871-46.142,6.525-78.755,6.767&#10;&#9;&#9;c33.578-10.146,53.633-17.395,74.647-57.744c21.02-40.1-7.249-152.675-46.383-187.465c-39.38-35.031-37.204-71.27-34.549-99.292&#10;&#9;&#9;C650.81,1315.603,641.146,1301.828,641.146,1301.828L641.146,1301.828z" transform="matrix(1, 0, 0, 1, -382.1908337571185, -1296.0189170353565)"/><path fill-rule="evenodd" clip-rule="evenodd" fill="#0F75A4" d="M569.637,1314.146c6.521-0.965,17.148,0.25,28.988,3.629&#10;&#9;&#9;c2.177,0.483,3.866,0.725,5.556,0.725c25.609,90.354,29.958,55.805,22.954,76.828c-7.49,22.464-35.996,47.591-35.996,41.307&#10;&#9;&#9;c0-6.283,22.95-27.781,21.257-47.831C610.706,1368.744,569.637,1314.146,569.637,1314.146L569.637,1314.146z" transform="matrix(1, 0, 0, 1, -382.1908337571185, -1296.0189170353565)"/><path fill="#08394D" d="M591.862,1400.638c-4.349,0-7.973-3.621-7.973-8.215c0-4.345,3.624-7.974,8.214-7.974&#10;&#9;&#9;c0.242,0,69.576,0.966,84.553-0.482c4.595-0.241,8.456,2.904,8.938,7.49c0.242,4.354-2.896,8.215-7.486,8.698&#10;&#9;&#9;C662.403,1401.603,592.104,1400.638,591.862,1400.638L591.862,1400.638z" transform="matrix(1, 0, 0, 1, -382.1908337571185, -1296.0189170353565)"/><path fill="#08394D" d="M670.377,1371.407c4.349-0.724,8.456,2.173,9.421,6.525c0.97,4.345-1.931,8.689-6.279,9.422&#10;&#9;&#9;c-0.241,0-52.426,10.387-78.035,10.628c-4.586,0.241-8.211-3.388-8.211-7.974c0-4.353,3.384-8.214,7.97-8.214&#10;&#9;&#9;C619.403,1381.553,670.136,1371.648,670.377,1371.407L670.377,1371.407z" transform="matrix(1, 0, 0, 1, -382.1908337571185, -1296.0189170353565)"/><path fill="#08394D" d="M643.319,1396.775c-2.173-3.87-0.966-8.697,3.142-11.119c3.866-2.172,8.697-0.724,10.87,3.146&#10;&#9;&#9;c0,0.241,9.421,15.455-5.556,47.349c-1.936,4.104-6.763,5.801-10.874,3.862c-4.104-1.69-5.797-6.518-3.862-10.629&#10;&#9;&#9;C648.392,1405.231,643.319,1396.775,643.319,1396.775L643.319,1396.775z" transform="matrix(1, 0, 0, 1, -382.1908337571185, -1296.0189170353565)"/><path fill="#08394D" d="M654.676,1402.086c-3.625-2.896-4.107-7.974-1.452-11.594c2.9-3.379,7.973-4.104,11.598-1.207&#10;&#9;&#9;c0,0,32.372,25.368,34.307,61.848c0.241,4.586-3.142,8.456-7.49,8.697c-4.59,0.241-8.456-3.146-8.697-7.732&#10;&#9;&#9;C681.251,1422.859,654.676,1402.086,654.676,1402.086L654.676,1402.086z" transform="matrix(1, 0, 0, 1, -382.1908337571185, -1296.0189170353565)"/><path fill="#115F85" d="M631.962,1611.058c-4.344-0.242-8.938-0.483-13.766-1.207c-4.836-0.725-9.422-1.931-13.533-3.379&#10;&#9;&#9;c-4.104-1.448-7.486-3.388-10.387-5.56c-2.655-2.173-4.107-5.069-4.107-8.215c0-1.207,0.245-2.414,0.729-3.862&#10;&#9;&#9;c0.482-1.448,1.448-2.655,2.654-3.861c0.966-1.216,2.659-2.181,4.349-2.905c1.936-0.965,4.107-1.207,6.521-1.207&#10;&#9;&#9;c2.177,0,4.111,0.242,6.042,0.725c1.932,0.724,4.107,1.207,6.28,1.931c2.176,0.725,4.349,1.457,6.767,2.181&#10;&#9;&#9;c2.654,0.725,5.313,0.966,8.451,1.207v-28.265c-4.827-1.698-9.903-3.146-14.735-4.836c-5.072-1.689-9.663-4.103-13.528-6.767&#10;&#9;&#9;c-3.862-2.654-7.004-6.034-9.663-10.146c-2.414-4.103-3.621-9.421-3.621-15.705c0-10.87,3.621-19.567,11.111-25.602&#10;&#9;&#9;c7.491-6.283,17.637-9.671,30.437-10.395v-9.422c0-1.448,0.487-2.655,1.453-3.62c0.965-0.966,2.417-1.448,3.865-1.448&#10;&#9;&#9;s2.655,0.482,3.621,1.448c0.97,0.965,1.693,2.172,1.693,3.62v9.422c3.384,0.241,7.245,0.724,11.356,1.215&#10;&#9;&#9;c4.104,0.724,7.97,1.448,11.594,2.896c3.625,1.206,6.525,3.138,8.939,5.068c2.413,2.181,3.624,4.836,3.624,7.974&#10;&#9;&#9;c0,3.387-1.211,6.042-3.865,8.215c-2.655,2.422-6.039,3.628-10.146,3.628c-1.693,0-3.383-0.241-4.831-0.724&#10;&#9;&#9;c-1.452-0.482-2.9-0.974-4.349-1.456c-1.448-0.483-3.384-0.966-5.318-1.448c-1.931-0.483-4.345-0.966-7.004-1.207v26.575&#10;&#9;&#9;c5.073,1.689,10.387,3.379,15.219,5.076c5.077,1.69,9.421,3.862,13.287,6.518c3.866,2.422,7.008,5.801,9.422,9.662&#10;&#9;&#9;c2.418,3.871,3.625,8.939,3.625,14.981c0,5.802-1.207,10.87-3.139,15.464c-2.176,4.345-5.076,8.215-8.697,11.594&#10;&#9;&#9;c-3.865,3.138-8.215,5.802-13.291,7.732c-5.069,1.931-10.629,3.138-16.426,3.62v9.663c0,1.457-0.724,2.663-1.693,3.629&#10;&#9;&#9;c-0.966,0.966-2.173,1.448-3.621,1.448s-2.9-0.482-3.865-1.448c-0.966-0.966-1.453-2.172-1.453-3.629V1611.058z M654.917,1573.854&#10;&#9;&#9;c0-3.379-0.966-5.792-2.9-7.249c-1.689-1.448-3.625-2.413-5.556-3.379l-3.866-1.448v24.645c3.866-0.966,6.763-2.181,8.938-4.354&#10;&#9;&#9;C653.71,1579.896,654.917,1577.241,654.917,1573.854L654.917,1573.854z M631.962,1532.306v-22.713&#10;&#9;&#9;c-3.62,0.482-6.521,1.448-8.938,3.138c-2.413,1.456-3.62,4.111-3.62,7.49c0,3.146,0.965,5.56,2.896,7.008&#10;&#9;&#9;c1.693,1.448,3.624,2.655,5.56,3.38L631.962,1532.306z" transform="matrix(1, 0, 0, 1, -382.1908337571185, -1296.0189170353565)"/><path fill-rule="evenodd" clip-rule="evenodd" fill="#FED8B1" d="M684.147,1750.216c0,0,21.743-6.283,47.107-20.773&#10;&#9;&#9;c25.127-14.499,53.149-21.266,69.579-7.732c16.43,13.525-53.633,56.047-67.645,66.192c-14.253,10.387-41.311,38.41-58.223,39.858&#10;&#9;&#9;c-16.912,1.456-118.618,2.422-139.396,0c-21.02-2.414-53.874-33.574-69.334-41.789c-15.464-8.215-60.641-3.388-60.641-3.388&#10;&#9;&#9;v-89.871c0,0,78.036-6.034,123.937,1.216l46.143,30.678C575.675,1724.606,632.449,1754.078,684.147,1750.216L684.147,1750.216z" transform="matrix(1, 0, 0, 1, -382.1908337571185, -1296.0189170353565)"/><path fill-rule="evenodd" clip-rule="evenodd" fill="#F2C291" d="M795.037,1717.84c1.931,0.966,4.107,2.414,5.797,3.87&#10;&#9;&#9;c16.43,13.525-53.633,56.047-67.645,66.192c-14.253,10.387-41.311,38.41-58.223,39.858c-16.912,1.456-118.618,2.422-139.396,0&#10;&#9;&#9;c-21.02-2.414-53.874-33.574-69.334-41.789c-15.464-8.215-60.641-3.388-60.641-3.388v-6.034&#10;&#9;&#9;c68.614-17.878,83.833,19.085,109.442,32.609c25.364,13.533,91.561,8.938,136.013,4.836&#10;&#9;&#9;c44.694-4.112,113.063-59.917,134.078-72.477C805.666,1728.951,795.278,1718.081,795.037,1717.84L795.037,1717.84z" transform="matrix(1, 0, 0, 1, -382.1908337571185, -1296.0189170353565)"/><path fill-rule="evenodd" clip-rule="evenodd" fill="#FED8B1" d="M529.532,1693.929c36.238,5.792,70.063,33.815,90.354,37.203&#10;&#9;&#9;c20.532,3.379,57.74,0.966,70.786,12.801c13.042,11.835-2.9,18.602-9.904,19.084c-7.008,0.483-53.874,6.525-72.721,3.146&#10;&#9;&#9;c-18.603-3.388-44.449-10.154-44.449-10.154l-30.928-4.345L529.532,1693.929z" transform="matrix(1, 0, 0, 1, -382.1908337571185, -1296.0189170353565)"/><path fill-rule="evenodd" clip-rule="evenodd" fill="#F2C291" d="M690.672,1743.933c13.042,11.835-2.9,18.602-9.904,19.084&#10;&#9;&#9;c-7.008,0.483-53.874,6.525-72.721,3.146c-18.603-3.388-44.449-10.154-44.449-10.154l-30.928-4.345&#10;&#9;&#9;c12.81-12.317,46.146,6.767,100.745,8.215C688.254,1761.086,690.672,1743.933,690.672,1743.933L690.672,1743.933z" transform="matrix(1, 0, 0, 1, -382.1908337571185, -1296.0189170353565)"/><path fill-rule="evenodd" clip-rule="evenodd" fill="#115F85" d="M427.822,1676.051h-28.506c-7.486,0-13.529,6.034-13.529,13.283&#10;&#9;&#9;v92.043c0,7.491,6.043,13.533,13.529,13.533h28.506c7.249,0,13.529-6.042,13.529-13.533v-92.043&#10;&#9;&#9;C441.352,1682.085,435.071,1676.051,427.822,1676.051L427.822,1676.051z" transform="matrix(1, 0, 0, 1, -382.1908337571185, -1296.0189170353565)"/><path fill-rule="evenodd" clip-rule="evenodd" fill="#0A6E9D" d="M427.822,1676.051h-28.506c-7.486,0-13.529,6.034-13.529,13.283&#10;&#9;&#9;v80.933c0,7.49,6.043,13.524,13.529,13.524h28.506c7.249,0,13.529-6.034,13.529-13.524v-80.933&#10;&#9;&#9;C441.352,1682.085,435.071,1676.051,427.822,1676.051L427.822,1676.051z" transform="matrix(1, 0, 0, 1, -382.1908337571185, -1296.0189170353565)"/>




</svg>