<?xml version="1.0" encoding="UTF-8" standalone="no"?>
<!-- Created with Inkscape (http://www.inkscape.org/) -->

<svg
   xmlns:dc="http://purl.org/dc/elements/1.1/"
   xmlns:cc="http://creativecommons.org/ns#"
   xmlns:rdf="http://www.w3.org/1999/02/22-rdf-syntax-ns#"
   xmlns:svg="http://www.w3.org/2000/svg"
   xmlns="http://www.w3.org/2000/svg"
   xmlns:sodipodi="http://sodipodi.sourceforge.net/DTD/sodipodi-0.dtd"
   xmlns:inkscape="http://www.inkscape.org/namespaces/inkscape"
   version="1.1"
   id="svg15489"
   xml:space="preserve"
   width="880"
   height="880"
   viewBox="0 0 880 880"
   sodipodi:docname="finger-gesture-freesvg.org.svg"
   inkscape:version="0.92.4 (5da689c313, 2019-01-14)"><metadata
     id="metadata15495"><rdf:RDF><cc:Work
         rdf:about=""><dc:format>image/svg+xml</dc:format><dc:type
           rdf:resource="http://purl.org/dc/dcmitype/StillImage" /><dc:title></dc:title></cc:Work></rdf:RDF></metadata><defs
     id="defs15493"><clipPath
       clipPathUnits="userSpaceOnUse"
       id="clipPath15505"><path
         d="M 0,660 H 660 V 0 H 0 Z"
         id="path15503"
         inkscape:connector-curvature="0" /></clipPath></defs><sodipodi:namedview
     pagecolor="#ffffff"
     bordercolor="#666666"
     borderopacity="1"
     objecttolerance="10"
     gridtolerance="10"
     guidetolerance="10"
     inkscape:pageopacity="0"
     inkscape:pageshadow="2"
     inkscape:window-width="1920"
     inkscape:window-height="1018"
     id="namedview15491"
     showgrid="false"
     inkscape:zoom="0.96477273"
     inkscape:cx="440"
     inkscape:cy="440"
     inkscape:window-x="-8"
     inkscape:window-y="-8"
     inkscape:window-maximized="1"
     inkscape:current-layer="g15497" /><g
     id="g15497"
     inkscape:groupmode="layer"
     inkscape:label="finger-gesture-freesvg.org"
     transform="matrix(1.3333333,0,0,-1.3333333,0,880)"><g
       id="g15499"><g
         id="g15501"
         clip-path="url(#clipPath15505)"><path
           d="m 31.141,-25.146 h 3.677 c 1.135,0 2.026,0.106 2.672,0.318 0.646,0.212 1.161,0.51 1.545,0.893 0.54,0.541 0.961,1.269 1.262,2.182 0.302,0.914 0.453,2.022 0.453,3.322 0,1.804 -0.295,3.19 -0.887,4.159 -0.591,0.967 -1.31,1.617 -2.155,1.946 -0.612,0.235 -1.594,0.352 -2.949,0.352 h -3.618 z m -2.282,-2.031 v 17.235 h 5.932 c 1.338,0 2.36,-0.082 3.065,-0.247 0.986,-0.228 1.828,-0.639 2.525,-1.235 0.908,-0.767 1.587,-1.749 2.037,-2.944 0.451,-1.195 0.676,-2.562 0.676,-4.098 0,-1.308 -0.153,-2.469 -0.458,-3.479 -0.305,-1.011 -0.697,-1.848 -1.175,-2.51 -0.477,-0.663 -1,-1.184 -1.568,-1.564 -0.567,-0.38 -1.252,-0.668 -2.055,-0.864 -0.802,-0.196 -1.724,-0.294 -2.766,-0.294 z"
           style="fill:#231f20;fill-opacity:1;fill-rule:nonzero;stroke:none"
           id="path15507"
           inkscape:connector-curvature="0" /><path
           d="m 47.546,-19.739 h 6.969 c -0.094,1.052 -0.36,1.842 -0.799,2.368 -0.674,0.817 -1.548,1.225 -2.621,1.225 -0.971,0 -1.788,-0.326 -2.45,-0.978 -0.662,-0.651 -1.028,-1.523 -1.099,-2.615 m 6.946,-3.407 2.187,-0.281 c -0.345,-1.277 -0.983,-2.268 -1.915,-2.973 -0.931,-0.705 -2.122,-1.058 -3.571,-1.058 -1.824,0 -3.272,0.562 -4.34,1.687 -1.069,1.124 -1.603,2.701 -1.603,4.731 0,2.1 0.54,3.729 1.621,4.889 1.08,1.16 2.482,1.74 4.205,1.74 1.668,0 3.03,-0.568 4.088,-1.704 1.057,-1.136 1.586,-2.735 1.586,-4.794 0,-0.126 -0.004,-0.315 -0.012,-0.565 h -9.317 c 0.079,-1.373 0.467,-2.425 1.165,-3.155 0.698,-0.729 1.569,-1.095 2.612,-1.095 0.776,0 1.439,0.205 1.988,0.616 0.549,0.41 0.984,1.064 1.306,1.962"
           style="fill:#231f20;fill-opacity:1;fill-rule:nonzero;stroke:none"
           id="path15509"
           inkscape:connector-curvature="0" /><path
           d="m 58.489,-23.442 2.094,0.328 c 0.118,-0.842 0.445,-1.489 0.983,-1.937 0.538,-0.448 1.289,-0.673 2.254,-0.673 0.973,0 1.695,0.199 2.166,0.595 0.471,0.397 0.706,0.861 0.706,1.396 0,0.479 -0.207,0.855 -0.62,1.13 -0.289,0.189 -1.01,0.428 -2.163,0.719 -1.554,0.392 -2.631,0.731 -3.231,1.016 -0.6,0.286 -1.055,0.681 -1.365,1.187 -0.31,0.505 -0.464,1.063 -0.464,1.674 0,0.557 0.127,1.071 0.382,1.545 0.254,0.475 0.602,0.868 1.04,1.182 0.329,0.242 0.778,0.448 1.347,0.616 0.568,0.169 1.177,0.253 1.828,0.253 0.979,0 1.84,-0.141 2.58,-0.423 0.741,-0.282 1.288,-0.664 1.641,-1.145 0.352,-0.482 0.595,-1.125 0.729,-1.932 l -2.063,-0.281 c -0.094,0.642 -0.367,1.144 -0.818,1.505 -0.451,0.361 -1.089,0.541 -1.912,0.541 -0.974,0 -1.668,-0.161 -2.084,-0.483 -0.416,-0.321 -0.623,-0.698 -0.623,-1.13 0,-0.275 0.086,-0.523 0.259,-0.742 0.172,-0.228 0.443,-0.417 0.811,-0.566 0.212,-0.079 0.836,-0.259 1.872,-0.541 1.498,-0.401 2.543,-0.728 3.133,-0.982 0.59,-0.255 1.053,-0.625 1.389,-1.11 0.336,-0.487 0.504,-1.089 0.504,-1.81 0,-0.705 -0.206,-1.369 -0.617,-1.992 -0.412,-0.622 -1.006,-1.104 -1.783,-1.445 -0.776,-0.341 -1.654,-0.511 -2.634,-0.511 -1.623,0 -2.861,0.338 -3.711,1.013 -0.852,0.674 -1.395,1.675 -1.63,3.003"
           style="fill:#231f20;fill-opacity:1;fill-rule:nonzero;stroke:none"
           id="path15511"
           inkscape:connector-curvature="0" /><path
           d="m 71.378,-14.692 h 2.109 v -12.484 h -2.109 z m 0,4.75 h 2.109 v -2.438 h -2.109 z"
           style="fill:#231f20;fill-opacity:1;fill-rule:nonzero;stroke:none"
           id="path15513"
           inkscape:connector-curvature="0" /><path
           d="m 78.078,-20.712 c 0,-1.639 0.325,-2.834 0.974,-3.586 0.65,-0.753 1.464,-1.129 2.442,-1.129 0.97,0 1.784,0.374 2.442,1.123 0.657,0.748 0.985,1.922 0.985,3.522 0,1.528 -0.338,2.68 -1.015,3.457 -0.677,0.775 -1.492,1.164 -2.448,1.164 -0.938,0 -1.737,-0.383 -2.394,-1.147 -0.657,-0.764 -0.986,-1.899 -0.986,-3.404 m -1.75,-7.496 2.062,-0.313 c 0.086,-0.632 0.325,-1.093 0.716,-1.382 0.524,-0.391 1.24,-0.586 2.147,-0.586 0.978,0 1.733,0.196 2.265,0.588 0.531,0.392 0.892,0.941 1.079,1.647 0.11,0.432 0.16,1.337 0.153,2.718 -0.924,-1.094 -2.075,-1.641 -3.453,-1.641 -1.715,0 -3.043,0.619 -3.982,1.858 -0.94,1.238 -1.409,2.722 -1.409,4.455 0,1.191 0.216,2.29 0.646,3.297 0.431,1.006 1.056,1.785 1.874,2.333 0.819,0.548 1.78,0.823 2.885,0.823 1.472,0 2.687,-0.594 3.642,-1.781 v 1.5 h 1.953 v -10.789 c 0,-1.944 -0.198,-3.321 -0.593,-4.131 -0.396,-0.811 -1.023,-1.451 -1.881,-1.922 -0.858,-0.47 -1.914,-0.705 -3.168,-0.705 -1.488,0 -2.691,0.335 -3.608,1.005 -0.917,0.67 -1.36,1.678 -1.328,3.026"
           style="fill:#231f20;fill-opacity:1;fill-rule:nonzero;stroke:none"
           id="path15515"
           inkscape:connector-curvature="0" /><path
           d="m 90.104,-27.177 v 12.485 h 1.89 v -1.775 c 0.916,1.37 2.24,2.056 3.97,2.056 0.752,0 1.444,-0.135 2.074,-0.405 0.63,-0.271 1.102,-0.625 1.415,-1.065 0.313,-0.438 0.533,-0.96 0.658,-1.563 0.078,-0.392 0.118,-1.077 0.118,-2.057 v -7.676 h -2.11 v 7.598 c 0,0.862 -0.082,1.507 -0.246,1.934 -0.165,0.427 -0.456,0.769 -0.875,1.023 -0.419,0.256 -0.911,0.383 -1.474,0.383 -0.9,0 -1.677,-0.286 -2.331,-0.859 -0.653,-0.572 -0.98,-1.658 -0.98,-3.257 v -6.822 z"
           style="fill:#231f20;fill-opacity:1;fill-rule:nonzero;stroke:none"
           id="path15517"
           inkscape:connector-curvature="0" /><path
           d="m 105.062,-19.739 h 6.969 c -0.094,1.052 -0.361,1.842 -0.799,2.368 -0.674,0.817 -1.548,1.225 -2.621,1.225 -0.972,0 -1.788,-0.326 -2.45,-0.978 -0.662,-0.651 -1.029,-1.523 -1.099,-2.615 m 6.945,-3.407 2.188,-0.281 c -0.345,-1.277 -0.984,-2.268 -1.915,-2.973 -0.932,-0.705 -2.122,-1.058 -3.571,-1.058 -1.825,0 -3.272,0.562 -4.34,1.687 -1.07,1.124 -1.604,2.701 -1.604,4.731 0,2.1 0.54,3.729 1.621,4.889 1.081,1.16 2.483,1.74 4.205,1.74 1.668,0 3.031,-0.568 4.088,-1.704 1.057,-1.136 1.586,-2.735 1.586,-4.794 0,-0.126 -0.004,-0.315 -0.012,-0.565 h -9.316 c 0.078,-1.373 0.467,-2.425 1.165,-3.155 0.697,-0.729 1.568,-1.095 2.611,-1.095 0.777,0 1.439,0.205 1.989,0.616 0.548,0.41 0.984,1.064 1.305,1.962"
           style="fill:#231f20;fill-opacity:1;fill-rule:nonzero;stroke:none"
           id="path15519"
           inkscape:connector-curvature="0" /><path
           d="m 118.255,-20.948 c 0,-1.6 0.337,-2.795 1.01,-3.588 0.674,-0.791 1.469,-1.188 2.385,-1.188 0.924,0 1.709,0.378 2.355,1.135 0.646,0.757 0.969,1.911 0.969,3.464 0,1.71 -0.329,2.964 -0.987,3.765 -0.657,0.798 -1.468,1.199 -2.431,1.199 -0.94,0 -1.724,-0.385 -2.355,-1.152 -0.63,-0.77 -0.946,-1.981 -0.946,-3.635 m 6.688,-6.229 v 1.571 c -0.791,-1.235 -1.955,-1.852 -3.49,-1.852 -0.995,0 -1.91,0.274 -2.744,0.822 -0.834,0.549 -1.48,1.315 -1.938,2.299 -0.458,0.983 -0.688,2.113 -0.688,3.391 0,1.246 0.208,2.376 0.624,3.39 0.415,1.015 1.037,1.793 1.868,2.334 0.83,0.54 1.758,0.811 2.784,0.811 0.752,0 1.422,-0.158 2.01,-0.476 0.587,-0.317 1.065,-0.73 1.433,-1.239 v 6.184 h 2.11 v -17.235 z"
           style="fill:#231f20;fill-opacity:1;fill-rule:nonzero;stroke:none"
           id="path15521"
           inkscape:connector-curvature="0" /><path
           d="m 144.882,-20.911 c -0.767,-0.314 -1.918,-0.58 -3.451,-0.799 -0.869,-0.126 -1.484,-0.268 -1.844,-0.424 -0.36,-0.156 -0.637,-0.386 -0.833,-0.687 -0.196,-0.302 -0.294,-0.637 -0.294,-1.006 0,-0.565 0.213,-1.034 0.639,-1.41 0.426,-0.377 1.049,-0.565 1.869,-0.565 0.813,0 1.535,0.178 2.168,0.535 0.633,0.357 1.098,0.844 1.395,1.463 0.226,0.479 0.34,1.184 0.34,2.117 z m 0.172,-4.719 c -0.786,-0.668 -1.541,-1.141 -2.263,-1.415 -0.723,-0.275 -1.499,-0.413 -2.327,-0.413 -1.367,0 -2.418,0.335 -3.152,1.005 -0.734,0.67 -1.102,1.526 -1.102,2.567 0,0.612 0.139,1.17 0.416,1.675 0.278,0.506 0.641,0.911 1.09,1.217 0.45,0.306 0.955,0.536 1.518,0.693 0.414,0.11 1.039,0.216 1.875,0.318 1.703,0.203 2.957,0.446 3.762,0.728 0.007,0.29 0.011,0.475 0.011,0.553 0,0.863 -0.199,1.471 -0.598,1.823 -0.539,0.479 -1.341,0.718 -2.404,0.718 -0.992,0 -1.725,-0.175 -2.198,-0.524 -0.474,-0.348 -0.823,-0.965 -1.05,-1.851 l -2.062,0.281 c 0.188,0.886 0.497,1.601 0.928,2.146 0.43,0.544 1.052,0.963 1.867,1.256 0.814,0.295 1.758,0.442 2.831,0.442 1.064,0 1.929,-0.125 2.596,-0.376 0.665,-0.251 1.154,-0.567 1.467,-0.946 0.314,-0.38 0.533,-0.861 0.658,-1.44 0.071,-0.361 0.106,-1.012 0.106,-1.951 v -2.822 c 0,-1.967 0.045,-3.211 0.136,-3.733 0.09,-0.52 0.268,-1.019 0.536,-1.498 h -2.203 c -0.227,0.442 -0.373,0.957 -0.438,1.547"
           style="fill:#231f20;fill-opacity:1;fill-rule:nonzero;stroke:none"
           id="path15523"
           inkscape:connector-curvature="0" /><path
           d="m 150.31,-27.177 v 12.485 h 1.89 v -1.775 c 0.916,1.37 2.24,2.056 3.97,2.056 0.752,0 1.444,-0.135 2.074,-0.405 0.631,-0.271 1.102,-0.625 1.415,-1.065 0.313,-0.438 0.533,-0.96 0.658,-1.563 0.078,-0.392 0.118,-1.077 0.118,-2.057 v -7.676 h -2.11 v 7.598 c 0,0.862 -0.082,1.507 -0.246,1.934 -0.165,0.427 -0.456,0.769 -0.875,1.023 -0.419,0.256 -0.911,0.383 -1.474,0.383 -0.9,0 -1.677,-0.286 -2.331,-0.859 -0.653,-0.572 -0.98,-1.658 -0.98,-3.257 v -6.822 z"
           style="fill:#231f20;fill-opacity:1;fill-rule:nonzero;stroke:none"
           id="path15525"
           inkscape:connector-curvature="0" /><path
           d="m 165.081,-20.948 c 0,-1.6 0.336,-2.795 1.009,-3.588 0.674,-0.791 1.469,-1.188 2.385,-1.188 0.924,0 1.709,0.378 2.356,1.135 0.645,0.757 0.968,1.911 0.968,3.464 0,1.71 -0.329,2.964 -0.986,3.765 -0.658,0.798 -1.469,1.199 -2.432,1.199 -0.94,0 -1.724,-0.385 -2.355,-1.152 -0.63,-0.77 -0.945,-1.981 -0.945,-3.635 m 6.687,-6.229 v 1.571 c -0.791,-1.235 -1.955,-1.852 -3.49,-1.852 -0.994,0 -1.909,0.274 -2.743,0.822 -0.834,0.549 -1.481,1.315 -1.939,2.299 -0.458,0.983 -0.687,2.113 -0.687,3.391 0,1.246 0.207,2.376 0.623,3.39 0.415,1.015 1.037,1.793 1.868,2.334 0.83,0.54 1.758,0.811 2.785,0.811 0.752,0 1.421,-0.158 2.009,-0.476 0.587,-0.317 1.065,-0.73 1.433,-1.239 v 6.184 h 2.11 v -17.235 z"
           style="fill:#231f20;fill-opacity:1;fill-rule:nonzero;stroke:none"
           id="path15527"
           inkscape:connector-curvature="0" /><path
           d="m 183.724,-27.177 v 12.485 h 1.89 v -1.895 c 0.487,0.886 0.937,1.471 1.349,1.752 0.413,0.283 0.867,0.424 1.362,0.424 0.715,0 1.441,-0.228 2.18,-0.682 l -0.74,-1.957 c -0.516,0.301 -1.033,0.451 -1.549,0.451 -0.461,0 -0.876,-0.138 -1.243,-0.417 -0.368,-0.278 -0.63,-0.664 -0.787,-1.158 -0.235,-0.752 -0.353,-1.575 -0.353,-2.468 v -6.535 z"
           style="fill:#231f20;fill-opacity:1;fill-rule:nonzero;stroke:none"
           id="path15529"
           inkscape:connector-curvature="0" /><path
           d="m 193.345,-19.739 h 6.968 c -0.094,1.052 -0.36,1.842 -0.799,2.368 -0.674,0.817 -1.547,1.225 -2.62,1.225 -0.972,0 -1.789,-0.326 -2.451,-0.978 -0.662,-0.651 -1.028,-1.523 -1.098,-2.615 m 6.945,-3.407 2.187,-0.281 c -0.345,-1.277 -0.982,-2.268 -1.914,-2.973 -0.933,-0.705 -2.123,-1.058 -3.571,-1.058 -1.825,0 -3.272,0.562 -4.341,1.687 -1.068,1.124 -1.603,2.701 -1.603,4.731 0,2.1 0.54,3.729 1.621,4.889 1.081,1.16 2.482,1.74 4.206,1.74 1.667,0 3.03,-0.568 4.087,-1.704 1.057,-1.136 1.586,-2.735 1.586,-4.794 0,-0.126 -0.004,-0.315 -0.012,-0.565 h -9.316 c 0.078,-1.373 0.466,-2.425 1.164,-3.155 0.699,-0.729 1.569,-1.095 2.612,-1.095 0.776,0 1.439,0.205 1.988,0.616 0.549,0.41 0.984,1.064 1.306,1.962"
           style="fill:#231f20;fill-opacity:1;fill-rule:nonzero;stroke:none"
           id="path15531"
           inkscape:connector-curvature="0" /><path
           d="m 205.1,-9.942 h 2.109 V -27.176 H 205.1 Z"
           style="fill:#231f20;fill-opacity:1;fill-rule:nonzero;stroke:none"
           id="path15533"
           inkscape:connector-curvature="0" /><path
           d="m 212.07,-19.739 h 6.969 c -0.094,1.052 -0.361,1.842 -0.799,2.368 -0.674,0.817 -1.547,1.225 -2.62,1.225 -0.972,0 -1.789,-0.326 -2.451,-0.978 -0.662,-0.651 -1.028,-1.523 -1.099,-2.615 m 6.946,-3.407 2.187,-0.281 c -0.345,-1.277 -0.983,-2.268 -1.915,-2.973 -0.932,-0.705 -2.122,-1.058 -3.571,-1.058 -1.824,0 -3.271,0.562 -4.341,1.687 -1.068,1.124 -1.603,2.701 -1.603,4.731 0,2.1 0.541,3.729 1.622,4.889 1.08,1.16 2.482,1.74 4.205,1.74 1.668,0 3.03,-0.568 4.088,-1.704 1.057,-1.136 1.585,-2.735 1.585,-4.794 0,-0.126 -0.003,-0.315 -0.011,-0.565 h -9.317 c 0.079,-1.373 0.467,-2.425 1.165,-3.155 0.698,-0.729 1.568,-1.095 2.612,-1.095 0.776,0 1.439,0.205 1.987,0.616 0.549,0.41 0.985,1.064 1.307,1.962"
           style="fill:#231f20;fill-opacity:1;fill-rule:nonzero;stroke:none"
           id="path15535"
           inkscape:connector-curvature="0" /><path
           d="m 231.826,-20.911 c -0.767,-0.314 -1.918,-0.58 -3.452,-0.799 -0.869,-0.126 -1.483,-0.268 -1.843,-0.424 -0.361,-0.156 -0.638,-0.386 -0.834,-0.687 -0.196,-0.302 -0.293,-0.637 -0.293,-1.006 0,-0.565 0.213,-1.034 0.638,-1.41 0.426,-0.377 1.049,-0.565 1.87,-0.565 0.812,0 1.535,0.178 2.168,0.535 0.632,0.357 1.097,0.844 1.394,1.463 0.227,0.479 0.34,1.184 0.34,2.117 z m 0.172,-4.719 c -0.787,-0.668 -1.541,-1.141 -2.264,-1.415 -0.723,-0.275 -1.498,-0.413 -2.326,-0.413 -1.367,0 -2.418,0.335 -3.153,1.005 -0.734,0.67 -1.101,1.526 -1.101,2.567 0,0.612 0.138,1.17 0.416,1.675 0.277,0.506 0.64,0.911 1.09,1.217 0.449,0.306 0.955,0.536 1.517,0.693 0.414,0.11 1.039,0.216 1.875,0.318 1.703,0.203 2.957,0.446 3.762,0.728 0.008,0.29 0.012,0.475 0.012,0.553 0,0.863 -0.2,1.471 -0.598,1.823 -0.54,0.479 -1.341,0.718 -2.404,0.718 -0.993,0 -1.726,-0.175 -2.199,-0.524 -0.473,-0.348 -0.823,-0.965 -1.049,-1.851 l -2.063,0.281 c 0.188,0.886 0.497,1.601 0.928,2.146 0.431,0.544 1.053,0.963 1.867,1.256 0.815,0.295 1.758,0.442 2.831,0.442 1.065,0 1.93,-0.125 2.596,-0.376 0.665,-0.251 1.155,-0.567 1.468,-0.946 0.313,-0.38 0.532,-0.861 0.658,-1.44 0.07,-0.361 0.105,-1.012 0.105,-1.951 v -2.822 c 0,-1.967 0.045,-3.211 0.136,-3.733 0.09,-0.52 0.269,-1.019 0.536,-1.498 h -2.203 c -0.227,0.442 -0.373,0.957 -0.437,1.547"
           style="fill:#231f20;fill-opacity:1;fill-rule:nonzero;stroke:none"
           id="path15537"
           inkscape:connector-curvature="0" /><path
           d="m 236.394,-23.442 2.093,0.328 c 0.118,-0.842 0.446,-1.489 0.983,-1.937 0.538,-0.448 1.289,-0.673 2.254,-0.673 0.974,0 1.695,0.199 2.166,0.595 0.471,0.397 0.707,0.861 0.707,1.396 0,0.479 -0.207,0.855 -0.621,1.13 -0.289,0.189 -1.01,0.428 -2.163,0.719 -1.554,0.392 -2.631,0.731 -3.23,1.016 -0.601,0.286 -1.056,0.681 -1.366,1.187 -0.309,0.505 -0.464,1.063 -0.464,1.674 0,0.557 0.127,1.071 0.382,1.545 0.255,0.475 0.602,0.868 1.04,1.182 0.329,0.242 0.779,0.448 1.347,0.616 0.568,0.169 1.178,0.253 1.828,0.253 0.98,0 1.84,-0.141 2.581,-0.423 0.74,-0.282 1.287,-0.664 1.64,-1.145 0.352,-0.482 0.596,-1.125 0.729,-1.932 l -2.063,-0.281 c -0.094,0.642 -0.366,1.144 -0.818,1.505 -0.451,0.361 -1.088,0.541 -1.912,0.541 -0.973,0 -1.668,-0.161 -2.084,-0.483 -0.416,-0.321 -0.623,-0.698 -0.623,-1.13 0,-0.275 0.086,-0.523 0.259,-0.742 0.172,-0.228 0.443,-0.417 0.812,-0.566 0.212,-0.079 0.836,-0.259 1.871,-0.541 1.499,-0.401 2.543,-0.728 3.133,-0.982 0.59,-0.255 1.053,-0.625 1.389,-1.11 0.336,-0.487 0.505,-1.089 0.505,-1.81 0,-0.705 -0.206,-1.369 -0.618,-1.992 -0.412,-0.622 -1.006,-1.104 -1.782,-1.445 -0.777,-0.341 -1.655,-0.511 -2.635,-0.511 -1.623,0 -2.86,0.338 -3.711,1.013 -0.852,0.674 -1.395,1.675 -1.629,3.003"
           style="fill:#231f20;fill-opacity:1;fill-rule:nonzero;stroke:none"
           id="path15539"
           inkscape:connector-curvature="0" /><path
           d="m 250.861,-19.739 h 6.969 c -0.094,1.052 -0.361,1.842 -0.799,2.368 -0.674,0.817 -1.548,1.225 -2.621,1.225 -0.972,0 -1.788,-0.326 -2.451,-0.978 -0.662,-0.651 -1.028,-1.523 -1.098,-2.615 m 6.945,-3.407 2.188,-0.281 c -0.345,-1.277 -0.984,-2.268 -1.915,-2.973 -0.932,-0.705 -2.122,-1.058 -3.572,-1.058 -1.824,0 -3.271,0.562 -4.34,1.687 -1.069,1.124 -1.603,2.701 -1.603,4.731 0,2.1 0.54,3.729 1.621,4.889 1.08,1.16 2.482,1.74 4.205,1.74 1.668,0 3.031,-0.568 4.088,-1.704 1.057,-1.136 1.586,-2.735 1.586,-4.794 0,-0.126 -0.004,-0.315 -0.012,-0.565 h -9.316 c 0.078,-1.373 0.467,-2.425 1.164,-3.155 0.698,-0.729 1.569,-1.095 2.612,-1.095 0.777,0 1.439,0.205 1.988,0.616 0.549,0.41 0.984,1.064 1.306,1.962"
           style="fill:#231f20;fill-opacity:1;fill-rule:nonzero;stroke:none"
           id="path15541"
           inkscape:connector-curvature="0" /><path
           d="m 264.053,-20.948 c 0,-1.6 0.337,-2.795 1.01,-3.588 0.674,-0.791 1.469,-1.188 2.385,-1.188 0.924,0 1.709,0.378 2.355,1.135 0.646,0.757 0.969,1.911 0.969,3.464 0,1.71 -0.329,2.964 -0.987,3.765 -0.658,0.798 -1.468,1.199 -2.431,1.199 -0.94,0 -1.725,-0.385 -2.355,-1.152 -0.63,-0.77 -0.946,-1.981 -0.946,-3.635 m 6.688,-6.229 v 1.571 c -0.791,-1.235 -1.954,-1.852 -3.49,-1.852 -0.995,0 -1.91,0.274 -2.744,0.822 -0.834,0.549 -1.48,1.315 -1.938,2.299 -0.458,0.983 -0.688,2.113 -0.688,3.391 0,1.246 0.208,2.376 0.623,3.39 0.415,1.015 1.038,1.793 1.869,2.334 0.83,0.54 1.757,0.811 2.785,0.811 0.752,0 1.422,-0.158 2.009,-0.476 0.586,-0.317 1.065,-0.73 1.433,-1.239 v 6.184 h 2.109 v -17.235 z"
           style="fill:#231f20;fill-opacity:1;fill-rule:nonzero;stroke:none"
           id="path15543"
           inkscape:connector-curvature="0" /><path
           d="m 282.728,-14.692 h 2.109 v -12.484 h -2.109 z m 0,4.75 h 2.109 v -2.438 h -2.109 z"
           style="fill:#231f20;fill-opacity:1;fill-rule:nonzero;stroke:none"
           id="path15545"
           inkscape:connector-curvature="0" /><path
           d="m 288.073,-27.177 v 12.485 h 1.89 v -1.775 c 0.916,1.37 2.24,2.056 3.971,2.056 0.751,0 1.442,-0.135 2.073,-0.405 0.63,-0.271 1.102,-0.625 1.415,-1.065 0.314,-0.438 0.533,-0.96 0.659,-1.563 0.078,-0.392 0.117,-1.077 0.117,-2.057 v -7.676 h -2.11 v 7.598 c 0,0.862 -0.082,1.507 -0.247,1.934 -0.164,0.427 -0.455,0.769 -0.874,1.023 -0.419,0.256 -0.91,0.383 -1.473,0.383 -0.901,0 -1.678,-0.286 -2.331,-0.859 -0.654,-0.572 -0.981,-1.658 -0.981,-3.257 v -6.822 z"
           style="fill:#231f20;fill-opacity:1;fill-rule:nonzero;stroke:none"
           id="path15547"
           inkscape:connector-curvature="0" /><path
           d="m 310.043,-21.007 c 0,-1.607 0.326,-2.796 0.975,-3.564 0.649,-0.769 1.436,-1.153 2.359,-1.153 0.939,0 1.744,0.399 2.413,1.194 0.668,0.797 1.003,2.029 1.003,3.699 0,1.592 -0.327,2.783 -0.98,3.576 -0.653,0.791 -1.435,1.188 -2.342,1.188 -0.899,0 -1.696,-0.422 -2.388,-1.265 -0.693,-0.843 -1.04,-2.067 -1.04,-3.675 m -1.906,-10.951 v 17.266 h 1.922 v -1.622 c 0.454,0.633 0.968,1.11 1.539,1.427 0.571,0.318 1.265,0.476 2.08,0.476 1.066,0 2.005,-0.275 2.82,-0.822 0.814,-0.549 1.429,-1.324 1.844,-2.323 0.415,-0.999 0.623,-2.093 0.623,-3.285 0,-1.277 -0.229,-2.427 -0.687,-3.449 -0.458,-1.023 -1.124,-1.807 -1.997,-2.352 -0.874,-0.544 -1.793,-0.816 -2.756,-0.816 -0.705,0 -1.338,0.148 -1.898,0.445 -0.56,0.297 -1.02,0.672 -1.38,1.125 v -6.07 z"
           style="fill:#231f20;fill-opacity:1;fill-rule:nonzero;stroke:none"
           id="path15549"
           inkscape:connector-curvature="0" /><path
           d="m 329.674,-27.177 v 1.841 c -0.968,-1.415 -2.285,-2.122 -3.949,-2.122 -0.734,0 -1.42,0.141 -2.057,0.423 -0.636,0.282 -1.109,0.637 -1.418,1.064 -0.308,0.427 -0.525,0.95 -0.65,1.57 -0.086,0.415 -0.129,1.073 -0.129,1.974 v 7.735 h 2.11 v -6.92 c 0,-1.105 0.043,-1.848 0.128,-2.233 0.133,-0.555 0.415,-0.992 0.845,-1.309 0.43,-0.318 0.961,-0.476 1.595,-0.476 0.633,0 1.227,0.162 1.782,0.487 0.555,0.326 0.947,0.768 1.179,1.328 0.23,0.56 0.346,1.373 0.346,2.438 v 6.685 h 2.108 v -12.485 z"
           style="fill:#231f20;fill-opacity:1;fill-rule:nonzero;stroke:none"
           id="path15551"
           inkscape:connector-curvature="0" /><path
           d="m 336.804,-20.841 c 0,-1.498 0.204,-2.58 0.612,-3.247 0.667,-1.091 1.569,-1.636 2.708,-1.636 0.926,0 1.727,0.403 2.401,1.206 0.675,0.804 1.013,2.002 1.013,3.595 0,1.632 -0.324,2.836 -0.972,3.612 -0.647,0.777 -1.43,1.165 -2.348,1.165 -0.926,0 -1.727,-0.402 -2.402,-1.206 -0.674,-0.803 -1.012,-1.966 -1.012,-3.489 m 0.031,-6.336 h -1.953 v 17.235 h 2.109 v -6.145 c 0.895,1.117 2.035,1.676 3.424,1.676 0.769,0 1.496,-0.154 2.183,-0.465 0.686,-0.309 1.251,-0.744 1.694,-1.305 0.443,-0.559 0.791,-1.235 1.041,-2.027 0.252,-0.791 0.377,-1.638 0.377,-2.539 0,-2.139 -0.529,-3.792 -1.589,-4.96 -1.059,-1.167 -2.331,-1.751 -3.813,-1.751 -1.476,0 -2.633,0.613 -3.473,1.84 z"
           style="fill:#231f20;fill-opacity:1;fill-rule:nonzero;stroke:none"
           id="path15553"
           inkscape:connector-curvature="0" /><path
           d="m 348.231,-9.942 h 2.109 v -17.234 h -2.109 z"
           style="fill:#231f20;fill-opacity:1;fill-rule:nonzero;stroke:none"
           id="path15555"
           inkscape:connector-curvature="0" /><path
           d="m 353.623,-14.692 h 2.109 v -12.484 h -2.109 z m 0,4.75 h 2.109 v -2.438 h -2.109 z"
           style="fill:#231f20;fill-opacity:1;fill-rule:nonzero;stroke:none"
           id="path15557"
           inkscape:connector-curvature="0" /><path
           d="m 367.109,-22.599 2.079,-0.281 c -0.228,-1.432 -0.81,-2.553 -1.747,-3.363 -0.936,-0.811 -2.087,-1.215 -3.45,-1.215 -1.709,0 -3.082,0.559 -4.121,1.675 -1.039,1.116 -1.557,2.717 -1.557,4.802 0,1.347 0.223,2.527 0.669,3.537 0.447,1.011 1.126,1.769 2.039,2.275 0.914,0.505 1.907,0.758 2.98,0.758 1.355,0 2.465,-0.344 3.326,-1.029 0.861,-0.687 1.414,-1.662 1.657,-2.924 l -2.062,-0.313 c -0.196,0.84 -0.542,1.472 -1.04,1.896 -0.497,0.424 -1.098,0.635 -1.803,0.635 -1.065,0 -1.931,-0.382 -2.596,-1.147 -0.666,-0.765 -0.999,-1.975 -0.999,-3.63 0,-1.679 0.322,-2.898 0.965,-3.659 0.644,-0.761 1.483,-1.142 2.519,-1.142 0.831,0 1.525,0.256 2.082,0.767 0.557,0.511 0.91,1.297 1.059,2.358"
           style="fill:#231f20;fill-opacity:1;fill-rule:nonzero;stroke:none"
           id="path15559"
           inkscape:connector-curvature="0" /><path
           d="m 379.073,-20.948 c 0,-1.6 0.337,-2.795 1.01,-3.588 0.674,-0.791 1.469,-1.188 2.385,-1.188 0.924,0 1.709,0.378 2.355,1.135 0.646,0.757 0.969,1.911 0.969,3.464 0,1.71 -0.329,2.964 -0.986,3.765 -0.659,0.798 -1.469,1.199 -2.432,1.199 -0.939,0 -1.725,-0.385 -2.355,-1.152 -0.63,-0.77 -0.946,-1.981 -0.946,-3.635 m 6.688,-6.229 v 1.571 c -0.791,-1.235 -1.955,-1.852 -3.49,-1.852 -0.995,0 -1.91,0.274 -2.744,0.822 -0.834,0.549 -1.48,1.315 -1.938,2.299 -0.459,0.983 -0.688,2.113 -0.688,3.391 0,1.246 0.207,2.376 0.623,3.39 0.415,1.015 1.038,1.793 1.869,2.334 0.83,0.54 1.758,0.811 2.784,0.811 0.752,0 1.422,-0.158 2.01,-0.476 0.587,-0.317 1.065,-0.73 1.433,-1.239 v 6.184 h 2.109 v -17.235 z"
           style="fill:#231f20;fill-opacity:1;fill-rule:nonzero;stroke:none"
           id="path15561"
           inkscape:connector-curvature="0" /><path
           d="m 392.438,-20.937 c 0,-1.599 0.348,-2.796 1.045,-3.593 0.698,-0.795 1.575,-1.194 2.632,-1.194 1.05,0 1.923,0.401 2.62,1.2 0.698,0.8 1.046,2.019 1.046,3.658 0,1.545 -0.35,2.715 -1.052,3.512 -0.701,0.794 -1.572,1.193 -2.614,1.193 -1.057,0 -1.934,-0.397 -2.632,-1.188 -0.697,-0.793 -1.045,-1.988 -1.045,-3.588 m -2.172,0.002 c 0,2.312 0.641,4.024 1.926,5.137 1.073,0.924 2.38,1.387 3.923,1.387 1.715,0 3.116,-0.563 4.205,-1.687 1.089,-1.125 1.633,-2.678 1.633,-4.661 0,-1.605 -0.241,-2.869 -0.723,-3.79 -0.481,-0.921 -1.182,-1.636 -2.102,-2.145 -0.92,-0.509 -1.924,-0.764 -3.013,-0.764 -1.746,0 -3.158,0.561 -4.234,1.681 -1.077,1.12 -1.615,2.735 -1.615,4.842"
           style="fill:#231f20;fill-opacity:1;fill-rule:nonzero;stroke:none"
           id="path15563"
           inkscape:connector-curvature="0" /><path
           d="m 404.436,-27.177 v 12.485 h 1.89 v -1.747 c 0.392,0.609 0.911,1.1 1.561,1.471 0.649,0.371 1.387,0.557 2.217,0.557 0.922,0 1.679,-0.192 2.27,-0.574 0.59,-0.384 1.007,-0.919 1.249,-1.607 0.988,1.454 2.275,2.181 3.859,2.181 1.24,0 2.193,-0.343 2.86,-1.028 0.667,-0.687 1,-1.743 1,-3.168 v -8.57 h -2.11 v 7.868 c 0,0.847 -0.068,1.456 -0.206,1.83 -0.136,0.372 -0.385,0.671 -0.746,0.899 -0.361,0.227 -0.785,0.341 -1.27,0.341 -0.879,0 -1.609,-0.292 -2.189,-0.876 -0.58,-0.585 -0.87,-1.52 -0.87,-2.806 v -7.256 h -2.109 v 8.115 c 0,0.941 -0.172,1.647 -0.517,2.117 -0.345,0.47 -0.908,0.706 -1.691,0.706 -0.595,0 -1.145,-0.157 -1.651,-0.471 -0.504,-0.313 -0.871,-0.772 -1.097,-1.376 -0.227,-0.603 -0.341,-1.474 -0.341,-2.61 v -6.481 z"
           style="fill:#231f20;fill-opacity:1;fill-rule:nonzero;stroke:none"
           id="path15565"
           inkscape:connector-curvature="0" /><path
           d="m 432.438,-20.911 c -0.767,-0.314 -1.918,-0.58 -3.453,-0.799 -0.868,-0.126 -1.482,-0.268 -1.842,-0.424 -0.361,-0.156 -0.638,-0.386 -0.833,-0.687 -0.197,-0.302 -0.294,-0.637 -0.294,-1.006 0,-0.565 0.213,-1.034 0.638,-1.41 0.426,-0.377 1.049,-0.565 1.869,-0.565 0.813,0 1.536,0.178 2.168,0.535 0.633,0.357 1.098,0.844 1.395,1.463 0.227,0.479 0.34,1.184 0.34,2.117 z m 0.171,-4.719 c -0.786,-0.668 -1.541,-1.141 -2.263,-1.415 -0.723,-0.275 -1.498,-0.413 -2.326,-0.413 -1.368,0 -2.418,0.335 -3.153,1.005 -0.734,0.67 -1.101,1.526 -1.101,2.567 0,0.612 0.138,1.17 0.416,1.675 0.277,0.506 0.64,0.911 1.089,1.217 0.45,0.306 0.956,0.536 1.518,0.693 0.414,0.11 1.039,0.216 1.875,0.318 1.703,0.203 2.957,0.446 3.762,0.728 0.008,0.29 0.012,0.475 0.012,0.553 0,0.863 -0.2,1.471 -0.599,1.823 -0.539,0.479 -1.34,0.718 -2.403,0.718 -0.994,0 -1.726,-0.175 -2.199,-0.524 -0.473,-0.348 -0.823,-0.965 -1.049,-1.851 l -2.063,0.281 c 0.188,0.886 0.497,1.601 0.928,2.146 0.43,0.544 1.052,0.963 1.867,1.256 0.814,0.295 1.759,0.442 2.831,0.442 1.064,0 1.93,-0.125 2.596,-0.376 0.665,-0.251 1.154,-0.567 1.467,-0.946 0.314,-0.38 0.533,-0.861 0.659,-1.44 0.07,-0.361 0.105,-1.012 0.105,-1.951 v -2.822 c 0,-1.967 0.045,-3.211 0.136,-3.733 0.09,-0.52 0.268,-1.019 0.536,-1.498 h -2.203 c -0.228,0.442 -0.373,0.957 -0.438,1.547"
           style="fill:#231f20;fill-opacity:1;fill-rule:nonzero;stroke:none"
           id="path15567"
           inkscape:connector-curvature="0" /><path
           d="m 437.865,-14.692 h 2.109 v -12.484 h -2.109 z m 0,4.75 h 2.109 v -2.438 h -2.109 z"
           style="fill:#231f20;fill-opacity:1;fill-rule:nonzero;stroke:none"
           id="path15569"
           inkscape:connector-curvature="0" /><path
           d="m 443.21,-27.177 v 12.485 h 1.891 v -1.775 c 0.916,1.37 2.239,2.056 3.97,2.056 0.752,0 1.443,-0.135 2.074,-0.405 0.629,-0.271 1.101,-0.625 1.415,-1.065 0.313,-0.438 0.532,-0.96 0.658,-1.563 0.078,-0.392 0.117,-1.077 0.117,-2.057 v -7.676 h -2.109 v 7.598 c 0,0.862 -0.082,1.507 -0.247,1.934 -0.165,0.427 -0.457,0.769 -0.875,1.023 -0.418,0.256 -0.91,0.383 -1.473,0.383 -0.901,0 -1.678,-0.286 -2.331,-0.859 -0.654,-0.572 -0.981,-1.658 -0.981,-3.257 v -6.822 z"
           style="fill:#231f20;fill-opacity:1;fill-rule:nonzero;stroke:none"
           id="path15571"
           inkscape:connector-curvature="0" /><path
           d="m 465.181,-20.841 c 0,-1.498 0.204,-2.58 0.612,-3.247 0.667,-1.091 1.569,-1.636 2.708,-1.636 0.926,0 1.727,0.403 2.401,1.206 0.675,0.804 1.013,2.002 1.013,3.595 0,1.632 -0.324,2.836 -0.972,3.612 -0.647,0.777 -1.43,1.165 -2.348,1.165 -0.926,0 -1.727,-0.402 -2.402,-1.206 -0.674,-0.803 -1.012,-1.966 -1.012,-3.489 m 0.031,-6.336 h -1.953 v 17.235 h 2.109 v -6.145 c 0.895,1.117 2.035,1.676 3.424,1.676 0.769,0 1.496,-0.154 2.183,-0.465 0.686,-0.309 1.251,-0.744 1.694,-1.305 0.443,-0.559 0.791,-1.235 1.041,-2.027 0.252,-0.791 0.377,-1.638 0.377,-2.539 0,-2.139 -0.529,-3.792 -1.589,-4.96 -1.06,-1.167 -2.331,-1.751 -3.813,-1.751 -1.476,0 -2.633,0.613 -3.473,1.84 z"
           style="fill:#231f20;fill-opacity:1;fill-rule:nonzero;stroke:none"
           id="path15573"
           inkscape:connector-curvature="0" /><path
           d="m 476.562,-31.979 -0.235,1.99 c 0.461,-0.125 0.864,-0.188 1.208,-0.188 0.47,0 0.845,0.078 1.126,0.235 0.281,0.157 0.513,0.377 0.693,0.658 0.132,0.212 0.347,0.736 0.645,1.574 0.039,0.118 0.102,0.29 0.188,0.518 l -4.75,12.5 h 2.28 l 2.602,-7.198 c 0.338,-0.912 0.64,-1.872 0.908,-2.879 0.244,0.941 0.535,1.873 0.873,2.797 l 2.665,7.28 h 2.114 l -4.733,-12.704 c -0.51,-1.369 -0.906,-2.31 -1.188,-2.827 -0.376,-0.695 -0.807,-1.205 -1.293,-1.53 -0.486,-0.324 -1.066,-0.486 -1.74,-0.486 -0.407,0 -0.862,0.086 -1.363,0.26"
           style="fill:#231f20;fill-opacity:1;fill-rule:nonzero;stroke:none"
           id="path15575"
           inkscape:connector-curvature="0" /><path
           d="m 495.744,-27.177 v 17.235 h 11.625 v -2.032 h -9.344 v -5.343 h 8.094 v -2.032 h -8.094 v -7.828 z"
           style="fill:#231f20;fill-opacity:1;fill-rule:nonzero;stroke:none"
           id="path15577"
           inkscape:connector-curvature="0" /><path
           d="m 510.034,-27.177 v 12.485 h 1.891 v -1.895 c 0.487,0.886 0.936,1.471 1.349,1.752 0.413,0.283 0.866,0.424 1.362,0.424 0.715,0 1.441,-0.228 2.179,-0.682 l -0.74,-1.957 c -0.515,0.301 -1.032,0.451 -1.549,0.451 -0.461,0 -0.875,-0.138 -1.243,-0.417 -0.367,-0.278 -0.63,-0.664 -0.786,-1.158 -0.236,-0.752 -0.353,-1.575 -0.353,-2.468 v -6.535 z"
           style="fill:#231f20;fill-opacity:1;fill-rule:nonzero;stroke:none"
           id="path15579"
           inkscape:connector-curvature="0" /><path
           d="m 519.655,-19.739 h 6.969 c -0.094,1.052 -0.36,1.842 -0.799,2.368 -0.674,0.817 -1.548,1.225 -2.621,1.225 -0.972,0 -1.788,-0.326 -2.45,-0.978 -0.662,-0.651 -1.028,-1.523 -1.099,-2.615 m 6.946,-3.407 2.187,-0.281 c -0.345,-1.277 -0.983,-2.268 -1.915,-2.973 -0.932,-0.705 -2.122,-1.058 -3.571,-1.058 -1.824,0 -3.272,0.562 -4.34,1.687 -1.069,1.124 -1.604,2.701 -1.604,4.731 0,2.1 0.54,3.729 1.621,4.889 1.081,1.16 2.483,1.74 4.206,1.74 1.668,0 3.031,-0.568 4.087,-1.704 1.057,-1.136 1.586,-2.735 1.586,-4.794 0,-0.126 -0.004,-0.315 -0.011,-0.565 h -9.317 c 0.078,-1.373 0.467,-2.425 1.164,-3.155 0.699,-0.729 1.57,-1.095 2.613,-1.095 0.776,0 1.438,0.205 1.988,0.616 0.549,0.41 0.983,1.064 1.306,1.962"
           style="fill:#231f20;fill-opacity:1;fill-rule:nonzero;stroke:none"
           id="path15581"
           inkscape:connector-curvature="0" /><path
           d="m 533.035,-19.739 h 6.969 c -0.095,1.052 -0.36,1.842 -0.799,2.368 -0.674,0.817 -1.548,1.225 -2.621,1.225 -0.972,0 -1.788,-0.326 -2.45,-0.978 -0.662,-0.651 -1.029,-1.523 -1.099,-2.615 m 6.945,-3.407 2.188,-0.281 c -0.345,-1.277 -0.983,-2.268 -1.915,-2.973 -0.932,-0.705 -2.122,-1.058 -3.57,-1.058 -1.826,0 -3.273,0.562 -4.341,1.687 -1.07,1.124 -1.604,2.701 -1.604,4.731 0,2.1 0.54,3.729 1.621,4.889 1.081,1.16 2.483,1.74 4.205,1.74 1.668,0 3.031,-0.568 4.088,-1.704 1.058,-1.136 1.586,-2.735 1.586,-4.794 0,-0.126 -0.004,-0.315 -0.011,-0.565 h -9.317 c 0.078,-1.373 0.467,-2.425 1.165,-3.155 0.697,-0.729 1.569,-1.095 2.612,-1.095 0.776,0 1.439,0.205 1.988,0.616 0.549,0.41 0.984,1.064 1.305,1.962"
           style="fill:#231f20;fill-opacity:1;fill-rule:nonzero;stroke:none"
           id="path15583"
           inkscape:connector-curvature="0" /><path
           d="m 544.338,-21.646 2.156,0.188 c 0.102,-0.864 0.338,-1.574 0.709,-2.128 0.371,-0.554 0.948,-1.002 1.73,-1.344 0.781,-0.341 1.661,-0.512 2.637,-0.512 0.868,0 1.634,0.129 2.298,0.388 0.664,0.26 1.158,0.616 1.484,1.068 0.324,0.451 0.486,0.944 0.486,1.476 0,0.541 -0.156,1.013 -0.468,1.417 -0.311,0.404 -0.828,0.742 -1.549,1.017 -0.462,0.18 -1.484,0.461 -3.066,0.842 -1.583,0.38 -2.692,0.739 -3.328,1.077 -0.824,0.431 -1.438,0.967 -1.842,1.607 -0.404,0.639 -0.606,1.356 -0.606,2.149 0,0.871 0.247,1.685 0.741,2.442 0.493,0.757 1.215,1.332 2.163,1.725 0.948,0.392 2.003,0.588 3.163,0.588 1.278,0 2.404,-0.205 3.381,-0.616 0.976,-0.411 1.726,-1.015 2.252,-1.813 0.525,-0.798 0.807,-1.701 0.846,-2.711 l -2.187,-0.172 c -0.118,1.087 -0.515,1.908 -1.192,2.464 -0.678,0.556 -1.68,0.833 -3.003,0.833 -1.38,0 -2.384,-0.253 -3.015,-0.759 -0.631,-0.507 -0.946,-1.116 -0.946,-1.83 0,-0.62 0.223,-1.13 0.67,-1.53 0.438,-0.401 1.585,-0.811 3.437,-1.23 1.853,-0.42 3.124,-0.786 3.814,-1.099 1.002,-0.462 1.743,-1.048 2.221,-1.757 0.478,-0.709 0.717,-1.526 0.717,-2.449 0,-0.917 -0.263,-1.781 -0.787,-2.591 -0.525,-0.812 -1.277,-1.442 -2.26,-1.892 -0.982,-0.45 -2.089,-0.676 -3.317,-0.676 -1.558,0 -2.864,0.228 -3.916,0.682 -1.053,0.454 -1.879,1.138 -2.478,2.051 -0.598,0.912 -0.914,1.944 -0.945,3.095"
           style="fill:#231f20;fill-opacity:1;fill-rule:nonzero;stroke:none"
           id="path15585"
           inkscape:connector-curvature="0" /><path
           d="m 566.063,-27.177 -6.666,17.235 h 2.472 l 4.478,-12.516 c 0.36,-1.003 0.662,-1.943 0.905,-2.82 0.267,0.939 0.576,1.88 0.929,2.82 l 4.657,12.516 h 2.331 l -6.748,-17.235 z"
           style="fill:#231f20;fill-opacity:1;fill-rule:nonzero;stroke:none"
           id="path15587"
           inkscape:connector-curvature="0" /><path
           d="m 585.26,-20.427 v 2.031 h 7.297 v -6.388 c -1.12,-0.893 -2.277,-1.565 -3.468,-2.014 -1.191,-0.451 -2.413,-0.676 -3.666,-0.676 -1.694,0 -3.231,0.363 -4.613,1.088 -1.384,0.725 -2.428,1.774 -3.133,3.146 -0.705,1.372 -1.058,2.905 -1.058,4.598 0,1.678 0.351,3.244 1.052,4.698 0.701,1.455 1.71,2.535 3.026,3.24 1.317,0.706 2.833,1.058 4.549,1.058 1.245,0 2.372,-0.202 3.379,-0.606 1.007,-0.404 1.796,-0.968 2.368,-1.689 0.572,-0.722 1.007,-1.664 1.305,-2.827 l -2.058,-0.563 c -0.259,0.878 -0.58,1.568 -0.965,2.071 -0.383,0.503 -0.932,0.906 -1.645,1.208 -0.714,0.302 -1.506,0.453 -2.376,0.453 -1.042,0 -1.944,-0.158 -2.704,-0.476 -0.761,-0.317 -1.375,-0.735 -1.841,-1.252 -0.466,-0.517 -0.829,-1.085 -1.088,-1.704 -0.438,-1.066 -0.658,-2.222 -0.658,-3.468 0,-1.536 0.265,-2.821 0.794,-3.855 0.529,-1.036 1.299,-1.803 2.31,-2.305 1.011,-0.501 2.085,-0.752 3.222,-0.752 0.988,0 1.952,0.189 2.894,0.568 0.94,0.38 1.653,0.784 2.139,1.215 v 3.201 z"
           style="fill:#231f20;fill-opacity:1;fill-rule:nonzero;stroke:none"
           id="path15589"
           inkscape:connector-curvature="0" /><path
           d="m 596.239,-24.771 h 2.406 v -2.406 h -2.406 z"
           style="fill:#231f20;fill-opacity:1;fill-rule:nonzero;stroke:none"
           id="path15591"
           inkscape:connector-curvature="0" /><path
           d="m 603.705,-20.937 c 0,-1.599 0.349,-2.796 1.046,-3.593 0.697,-0.795 1.574,-1.194 2.632,-1.194 1.05,0 1.923,0.401 2.62,1.2 0.697,0.8 1.046,2.019 1.046,3.658 0,1.545 -0.351,2.715 -1.052,3.512 -0.701,0.794 -1.572,1.193 -2.614,1.193 -1.058,0 -1.935,-0.397 -2.632,-1.188 -0.697,-0.793 -1.046,-1.988 -1.046,-3.588 m -2.172,0.002 c 0,2.312 0.642,4.024 1.927,5.137 1.072,0.924 2.38,1.387 3.923,1.387 1.715,0 3.116,-0.563 4.205,-1.687 1.089,-1.125 1.633,-2.678 1.633,-4.661 0,-1.605 -0.242,-2.869 -0.723,-3.79 -0.481,-0.921 -1.183,-1.636 -2.102,-2.145 -0.92,-0.509 -1.924,-0.764 -3.013,-0.764 -1.746,0 -3.158,0.561 -4.235,1.681 -1.077,1.12 -1.615,2.735 -1.615,4.842"
           style="fill:#231f20;fill-opacity:1;fill-rule:nonzero;stroke:none"
           id="path15593"
           inkscape:connector-curvature="0" /><path
           d="m 615.679,-27.177 v 12.485 h 1.89 v -1.895 c 0.488,0.886 0.937,1.471 1.35,1.752 0.412,0.283 0.865,0.424 1.361,0.424 0.715,0 1.442,-0.228 2.18,-0.682 l -0.74,-1.957 c -0.516,0.301 -1.032,0.451 -1.549,0.451 -0.461,0 -0.875,-0.138 -1.243,-0.417 -0.367,-0.278 -0.63,-0.664 -0.786,-1.158 -0.237,-0.752 -0.354,-1.575 -0.354,-2.468 v -6.535 z"
           style="fill:#231f20;fill-opacity:1;fill-rule:nonzero;stroke:none"
           id="path15595"
           inkscape:connector-curvature="0" /><path
           d="m 625.077,-20.712 c 0,-1.639 0.325,-2.834 0.975,-3.586 0.649,-0.753 1.463,-1.129 2.441,-1.129 0.971,0 1.784,0.374 2.442,1.123 0.658,0.748 0.986,1.922 0.986,3.522 0,1.528 -0.338,2.68 -1.016,3.457 -0.676,0.775 -1.492,1.164 -2.447,1.164 -0.939,0 -1.737,-0.383 -2.395,-1.147 -0.657,-0.764 -0.986,-1.899 -0.986,-3.404 m -1.75,-7.496 2.063,-0.313 c 0.086,-0.632 0.325,-1.093 0.715,-1.382 0.525,-0.391 1.241,-0.586 2.148,-0.586 0.977,0 1.732,0.196 2.265,0.588 0.531,0.392 0.891,0.941 1.079,1.647 0.109,0.432 0.16,1.337 0.152,2.718 -0.924,-1.094 -2.074,-1.641 -3.453,-1.641 -1.715,0 -3.042,0.619 -3.982,1.858 -0.939,1.238 -1.409,2.722 -1.409,4.455 0,1.191 0.216,2.29 0.647,3.297 0.43,1.006 1.055,1.785 1.874,2.333 0.818,0.548 1.78,0.823 2.884,0.823 1.472,0 2.687,-0.594 3.642,-1.781 v 1.5 h 1.953 v -10.789 c 0,-1.944 -0.197,-3.321 -0.593,-4.131 -0.396,-0.811 -1.023,-1.451 -1.88,-1.922 -0.859,-0.47 -1.914,-0.705 -3.168,-0.705 -1.489,0 -2.692,0.335 -3.609,1.005 -0.917,0.67 -1.359,1.678 -1.328,3.026"
           style="fill:#231f20;fill-opacity:1;fill-rule:nonzero;stroke:none"
           id="path15597"
           inkscape:connector-curvature="0" /><path
           d="m 178.393,175.204 c 1.575,-1.276 3.251,-2.457 5.013,-3.52 1.757,-1.074 3.597,-2.042 5.523,-2.854 0.189,-0.085 0.388,-0.143 0.58,-0.225 -8.477,11.88 -16.12,23.329 -20.896,30.617 -0.248,-5.331 -0.267,-9.134 0.045,-10.26 1.155,-3.466 4.616,-8.516 5.87,-10.191 1.096,-1.194 2.49,-2.458 3.865,-3.567"
           style="fill:#ddab7d;fill-opacity:1;fill-rule:nonzero;stroke:none"
           id="path15599"
           inkscape:connector-curvature="0" /><path
           d="m 255.643,132.359 c 2.304,2.335 4.666,4.601 7.082,6.798 2.408,2.205 4.882,4.332 7.367,6.445 l 3.731,3.16 c 0.63,0.518 1.236,1.06 1.84,1.603 0.58,0.565 1.224,1.079 1.595,1.821 -0.05,-0.856 -0.504,-1.642 -0.904,-2.37 -0.422,-0.734 -0.904,-1.421 -1.381,-2.111 -0.991,-1.348 -2.037,-2.642 -3.142,-3.875 -2.198,-2.478 -4.526,-4.815 -6.966,-7.025 -2.431,-2.218 -4.97,-4.312 -7.592,-6.304 -2.623,-1.99 -5.33,-3.881 -8.253,-5.505 2.068,2.626 4.316,5.029 6.623,7.363 m 24.796,7.497 c -0.982,-1.869 -2.183,-3.509 -3.462,-5.069 -1.282,-1.558 -2.635,-3.041 -4.084,-4.427 -1.439,-1.394 -2.967,-2.697 -4.57,-3.922 -1.604,-1.224 -3.285,-2.368 -5.184,-3.286 0.984,1.866 2.186,3.505 3.465,5.066 1.281,1.559 2.637,3.04 4.08,4.43 1.436,1.398 2.966,2.7 4.567,3.925 1.604,1.225 3.287,2.367 5.188,3.283 m -109.296,92.067 c -0.731,-7.434 -1.394,-15.164 -1.882,-22.005 4.113,-6.413 43.66,-67.668 61.316,-80.194 16.361,-11.607 29.4,-8.053 29.53,-8.015 l 0.409,0.089 c 0.263,0.04 26.007,4.154 31.471,22.276 -4.372,3.734 -9.244,7.714 -14.618,11.639 -15.06,11.003 -17.267,14.925 -20.058,19.89 -0.731,1.296 -1.485,2.637 -2.565,4.217 -4.37,6.386 -40.283,60.372 -51.063,76.582 -3.047,-3.917 -7.697,-7.455 -14.57,-8.958 -2.45,-0.534 -11.089,-8.304 -17.97,-15.521"
           style="fill:#ddab7d;fill-opacity:1;fill-rule:nonzero;stroke:none"
           id="path15601"
           inkscape:connector-curvature="0" /><path
           d="m 193.504,151.301 c 3.784,-1.429 7.69,-2.623 11.658,-3.654 -4.836,6.113 -9.787,12.78 -14.516,19.369 -0.72,0.073 -1.439,0.16 -2.156,0.285 -2.146,0.323 -4.276,0.829 -6.377,1.475 -2.106,0.636 -4.179,1.423 -6.208,2.355 -0.164,0.076 -0.322,0.155 -0.485,0.231 0.446,-5.157 1.449,-9.558 2.522,-10.392 1.002,-0.627 1.708,-1.406 2.266,-2.346 1.368,-1.273 3.105,-2.436 4.893,-3.457 2.62,-1.491 5.468,-2.773 8.403,-3.866"
           style="fill:#ddab7d;fill-opacity:1;fill-rule:nonzero;stroke:none"
           id="path15603"
           inkscape:connector-curvature="0" /><path
           d="m 292.593,173.221 c 3.403,3.092 6.981,5.99 10.686,8.741 3.741,2.699 7.608,5.267 11.785,7.354 2.084,1.044 4.256,1.957 6.53,2.605 1.138,0.311 2.316,0.529 3.5,0.624 1.193,0.033 2.418,-0.075 3.469,-0.588 -2.309,0.293 -4.422,-0.554 -6.431,-1.503 -2.019,-0.944 -3.943,-2.111 -5.849,-3.3 -3.78,-2.444 -7.478,-5.057 -11.127,-7.758 l -11.004,-8.095 c -3.709,-2.663 -7.358,-5.454 -11.41,-7.727 3.215,3.289 6.408,6.598 9.851,9.647 m 22.745,1.793 c -2.417,-1.889 -4.905,-3.671 -7.475,-5.327 -2.563,-1.666 -5.207,-3.208 -7.918,-4.642 -2.715,-1.42 -5.486,-2.781 -8.477,-3.712 4.633,4.131 9.565,7.685 14.666,11.023 2.55,1.664 5.165,3.226 7.826,4.723 2.663,1.495 5.371,2.912 8.239,4.14 -2.104,-2.31 -4.448,-4.316 -6.861,-6.205 m -52.481,3.709 c 2.414,-4.293 4.322,-7.683 18.266,-17.87 9.301,-6.793 17.094,-13.695 23.356,-19.24 6.296,-5.576 11.271,-9.98 14.707,-11.608 3.957,-1.875 7.83,-1.721 10.128,-1.358 l -14.615,14.925 0.836,1.096 c 0.748,0.977 18.427,23.889 30.565,20.436 l 0.296,-0.084 0.243,-0.19 c 2.509,-1.945 5.769,-5.466 8.505,-8.627 -0.031,1.303 -0.002,2.602 0.085,3.894 -2.032,2.569 -6.656,9.021 -13.567,18.703 -5.739,8.038 -12.243,17.149 -13.531,18.601 -3.67,4.129 -21.227,48.097 -23.098,53.1 -7.685,20.569 -18.403,55.673 -23.045,71.134 -6.377,0.098 -34.332,0.502 -40.803,-0.012 -7.279,-0.58 -26.161,-23.581 -27.088,-28.445 l -0.017,-0.084 -5.45,-24.972 c -0.158,-1.541 -0.606,-3.472 -1.418,-5.534 7.745,-11.648 48.153,-72.405 52.785,-79.176 1.239,-1.808 2.1,-3.338 2.86,-4.689"
           style="fill:#ddab7d;fill-opacity:1;fill-rule:nonzero;stroke:none"
           id="path15605"
           inkscape:connector-curvature="0" /><path
           d="m 429.474,169.615 c -0.159,-3.62 -1.826,-35.567 -11.414,-42.577 -2.013,-1.472 -4.74,-2.043 -7.754,-2.043 -4.752,0 -10.219,1.418 -14.748,2.953 -8.383,2.842 -20.596,8.819 -21.722,12.653 -1.351,4.581 1.373,34.662 8.771,41.766 4.481,4.302 16.984,1.65 24.038,-0.318 7.317,-2.04 21.493,-7.163 22.776,-11.952 l 0.064,-0.237 z m 57.465,-69.038 c 5.039,8.064 6.325,21.858 5.365,31.951 -0.699,7.326 -4.851,17.255 -9.431,27.858 -1.314,0.711 -2.636,1.461 -3.972,2.258 3.111,-3.697 5.204,-8.214 6.677,-12.84 1.589,-5.048 2.299,-10.417 1.95,-15.783 -0.215,-2.676 -0.679,-5.347 -1.47,-7.929 -0.834,-2.566 -1.93,-5.059 -3.398,-7.314 -1.431,-2.274 -3.181,-4.325 -5.121,-6.128 -1.992,-1.753 -4.151,-3.272 -6.461,-4.478 1.905,1.785 3.73,3.582 5.327,5.554 1.593,1.969 2.955,4.085 4.102,6.288 2.276,4.418 3.535,9.283 3.85,14.234 0.381,4.952 -0.134,9.985 -1.171,14.925 -1.05,4.706 -2.512,9.375 -4.78,13.773 -4.628,2.792 -9.39,6.031 -14.354,9.411 -10.917,7.436 -22.206,15.125 -32.094,17.715 -16.83,4.408 -40.353,6.366 -52.224,0.249 -12.322,-6.347 -22.089,-26.204 -16.716,-43.278 5.604,-17.809 18.911,-24.9 34.435,-31.716 15.939,-6.996 47.67,-12.446 51.015,-12.126 -0.112,-0.011 -0.201,-0.037 -0.272,-0.057 l 1.749,-6.119 c -0.319,-0.091 -0.824,-0.134 -1.494,-0.134 -2.58,0 -7.596,0.653 -13.686,1.753 0.716,-1.056 1.478,-2.091 2.268,-3.081 1.717,-2.134 3.631,-4.116 5.735,-5.887 2.111,-1.767 4.468,-3.223 6.982,-4.381 2.528,-1.158 5.273,-1.746 8.07,-2.047 -2.8,0.035 -5.653,0.362 -8.356,1.305 -2.688,0.94 -5.283,2.221 -7.651,3.85 -2.362,1.634 -4.557,3.514 -6.567,5.579 -1.509,1.571 -2.913,3.182 -4.218,4.956 -7.477,0.62 -16.758,1.83 -25.104,4.198 0.134,-0.402 0.266,-0.802 0.399,-1.204 1.158,-2.877 2.488,-5.749 4.233,-8.379 3.382,-5.33 7.864,-10.01 13.132,-13.666 l 2.004,-1.34 1.005,-0.673 1.073,-0.556 4.319,-2.21 c 3.042,-1.097 6.047,-2.418 9.268,-3.041 l 2.387,-0.588 1.197,-0.289 1.219,-0.16 4.896,-0.641 c 1.632,-0.296 3.288,-0.197 4.938,-0.277 l 0.638,-0.015 c 3.902,3.973 5.974,6.716 6.055,6.824 l 0.244,0.327 0.318,0.259 c 0.187,0.15 18.734,15.139 23.69,23.07"
           style="fill:#ddab7d;fill-opacity:1;fill-rule:nonzero;stroke:none"
           id="path15607"
           inkscape:connector-curvature="0" /><path
           d="m 414.394,149.469 c -0.642,-3.223 -0.387,-6.627 0.706,-9.782 0.827,-2.372 2.162,-4.581 3.939,-6.552 3.85,6.901 5.888,20.375 6.769,29.797 -2.779,-1.137 -5.233,-2.676 -7.113,-4.734 -2.232,-2.452 -3.72,-5.496 -4.301,-8.729"
           style="fill:#ddab7d;fill-opacity:1;fill-rule:nonzero;stroke:none"
           id="path15609"
           inkscape:connector-curvature="0" /><path
           d="m 405.79,178.983 c -5.969,1.664 -11.224,2.515 -15.061,2.515 -2.854,0 -4.923,-0.471 -5.918,-1.428 -5.971,-5.733 -9.218,-34.174 -7.924,-38.572 0.705,-1.814 10.961,-8.051 22.567,-11.446 7.985,-2.335 13.925,-2.497 16.73,-0.445 0.872,0.638 1.676,1.586 2.418,2.775 -2.426,1.466 -4.479,3.69 -5.785,6.326 -0.413,0.866 -0.743,1.778 -1.082,2.688 -0.23,0.937 -0.428,1.888 -0.631,2.841 -0.066,0.966 -0.121,1.941 -0.135,2.912 0.097,0.966 0.14,1.945 0.3,2.906 0.742,3.821 2.718,7.463 5.725,9.938 2.536,2.153 5.723,3.351 8.87,3.555 0.205,2.279 0.342,4.302 0.417,5.897 -0.923,1.871 -9.016,6.339 -20.491,9.538"
           style="fill:#f0ccab;fill-opacity:1;fill-rule:nonzero;stroke:none"
           id="path15611"
           inkscape:connector-curvature="0" /><path
           d="m 456.265,69.729 -0.269,-0.014 c -1.658,-0.053 -3.326,-0.285 -4.985,-0.12 l -5.001,0.252 -1.255,0.064 -1.238,0.194 -2.482,0.405 c -3.353,0.379 -6.55,1.474 -9.819,2.378 l -4.704,1.946 -1.178,0.499 -1.115,0.621 -2.238,1.247 c -5.907,3.434 -11.171,8.086 -15.347,13.631 -2.142,2.739 -3.877,5.781 -5.441,8.933 -0.693,1.627 -1.427,3.235 -1.941,4.988 -0.076,0.208 -0.133,0.434 -0.197,0.651 -12.409,4.544 -25.361,11.134 -31.63,14.462 -8.262,-3.049 -23.327,-6.808 -36.687,-7.94 -0.742,-4.009 -1.195,-8.093 -1.375,-12.189 -0.377,-8.906 0.547,-17.924 3.198,-26.473 2.607,-8.559 7.216,-16.513 13.472,-23.03 3.122,-3.27 6.732,-6.059 10.538,-8.543 1.918,-1.266 3.931,-2.372 5.995,-3.385 0.425,0.089 0.676,0.143 0.714,0.151 l 0.565,0.071 12.405,0.445 0.205,-0.019 c 39.875,-3.768 67.892,18.753 79.81,30.775"
           style="fill:#ddab7d;fill-opacity:1;fill-rule:nonzero;stroke:none"
           id="path15613"
           inkscape:connector-curvature="0" /><path
           d="m 318.912,143.818 14.2,-14.503 0.547,-0.21 c 0.589,-0.22 14.175,-5.123 28.544,4.581 -2.098,3.339 -3.889,7.1 -5.256,11.446 -0.577,1.831 -1.002,3.679 -1.301,5.53 -2.792,3.398 -7.456,8.845 -10.706,11.455 -1.799,0.419 -3.851,0.022 -6.002,-0.877 1.016,-2.159 1.324,-4.727 0.739,-7.214 -0.573,-2.513 -2.087,-4.922 -4.266,-6.478 -2.166,-1.575 -4.874,-2.287 -7.429,-2.136 -2.193,0.115 -4.257,0.867 -5.97,2.05 -1.186,-1.327 -2.246,-2.578 -3.1,-3.644"
           style="fill:#f0ccab;fill-opacity:1;fill-rule:nonzero;stroke:none"
           id="path15615"
           inkscape:connector-curvature="0" /><path
           d="m 376.82,195.979 c 2.957,1.524 6.486,2.603 10.353,3.341 -1.616,3.987 -4.449,9.339 -7.705,10.188 -1.322,0.345 -3.408,0.294 -5.872,-0.033 0.326,-1.909 0.129,-3.989 -0.886,-5.866 -1.314,-2.513 -3.925,-4.23 -6.588,-4.827 -2.68,-0.635 -5.469,-0.371 -7.945,0.601 -1.951,0.757 -3.788,2.086 -4.88,3.825 -1.502,-0.817 -2.623,-1.627 -3.161,-2.372 -1.537,-2.128 2.678,-14.799 8.074,-27.282 3.829,10.05 10.812,18.408 18.61,22.425"
           style="fill:#f0ccab;fill-opacity:1;fill-rule:nonzero;stroke:none"
           id="path15617"
           inkscape:connector-curvature="0" /><path
           d="m 333.539,150.119 c 1.613,1.182 2.906,2.779 3.781,4.691 0.866,1.886 1.308,4.041 1.569,6.411 -5.64,-2.374 -11.976,-8.334 -16.476,-13.308 1.924,-0.226 3.746,-0.284 5.476,-0.029 2.099,0.307 4.024,1.071 5.65,2.235"
           style="fill:#f0ccab;fill-opacity:1;fill-rule:nonzero;stroke:none"
           id="path15619"
           inkscape:connector-curvature="0" /><path
           d="m 267.459,34.962 c 23.28,-10.789 84.485,1.156 94.447,3.207 -1.96,0.842 -3.888,1.764 -5.742,2.84 -3.993,2.286 -7.84,4.914 -11.241,8.086 -6.813,6.311 -12.123,14.331 -15.37,23.131 -2.796,7.461 -4.303,15.362 -4.787,23.319 -0.123,-1.08 -0.246,-2.16 -0.407,-3.235 -0.891,-5.727 -2.254,-11.375 -4.269,-16.785 -2.149,-5.365 -5.005,-10.41 -8.629,-14.814 3.205,4.733 5.519,9.928 7.121,15.319 1.464,5.442 2.268,11.012 2.613,16.601 0.296,5.598 0.088,11.211 -0.44,16.775 -0.151,1.507 -0.33,3.021 -0.53,4.534 -5.804,3.263 -13.81,9.396 -19.927,14.33 -5.025,-6.224 -17.536,-19.159 -33.911,-17.845 -0.844,0.068 -1.645,0.147 -2.428,0.232 -0.279,-1.935 -0.607,-3.86 -0.991,-5.784 -0.907,-4.432 -2.124,-8.797 -3.677,-13.038 -1.619,-4.221 -3.62,-8.287 -6.042,-12.084 -2.511,-3.75 -5.547,-7.107 -9.002,-9.944 3.286,3.043 6.078,6.536 8.325,10.362 2.16,3.876 3.877,7.967 5.213,12.181 1.272,4.236 2.204,8.563 2.831,12.93 0.265,1.893 0.474,3.806 0.634,5.718 -7.011,1.018 -11.355,2.757 -14.635,4.677 -5.626,1.151 -12.42,3.679 -19.72,8.86 -5.578,3.957 -12.985,12.147 -20.764,21.893 -4.504,0.355 -9.007,0.929 -13.501,1.813 -3.189,0.617 -6.366,1.438 -9.526,2.591 -0.128,0.049 -0.257,0.101 -0.385,0.15 1.882,-6.874 5.708,-18.865 18.557,-41.504 20.846,-36.729 39.188,-62.003 66.183,-74.516"
           style="fill:#ddab7d;fill-opacity:1;fill-rule:nonzero;stroke:none"
           id="path15621"
           inkscape:connector-curvature="0" /><path
           d="m 365.383,201.876 c 2.057,0.5 3.929,1.467 5.245,3.087 0.976,1.177 1.598,2.683 2.042,4.379 -6.015,-0.931 -13.881,-3.338 -18.651,-5.756 1.544,-0.963 3.194,-1.505 4.864,-1.833 2.192,-0.402 4.436,-0.362 6.5,0.123"
           style="fill:#f0ccab;fill-opacity:1;fill-rule:nonzero;stroke:none"
           id="path15623"
           inkscape:connector-curvature="0" /><path
           d="m 335.289,247.619 c 4.384,1.846 8.912,3.358 13.535,4.569 4.634,1.154 9.383,2.018 14.213,2.161 4.774,0.112 9.847,-0.343 14.047,-2.734 -4.635,1.117 -9.276,0.799 -13.851,0.258 -4.577,-0.629 -9.12,-1.588 -13.622,-2.766 -4.518,-1.12 -8.992,-2.47 -13.484,-3.815 l -13.529,-4.15 c 4.02,2.561 8.306,4.642 12.691,6.477 m 29.617,-5.805 c -2.774,-0.83 -5.574,-1.548 -8.403,-2.131 -2.827,-0.592 -5.684,-1.051 -8.565,-1.386 -1.441,-0.173 -2.892,-0.284 -4.351,-0.362 -1.458,-0.025 -2.944,-0.146 -4.419,0.157 2.782,0.869 5.5,1.89 8.29,2.632 2.779,0.789 5.575,1.487 8.396,2.072 2.819,0.598 5.665,1.068 8.533,1.446 2.869,0.375 5.76,0.644 8.72,0.612 -2.678,-1.262 -5.427,-2.208 -8.201,-3.04 m -53.911,10.915 c 4.03,-10.791 19.407,-47.944 21.919,-51.135 1.385,-1.557 6.187,-8.254 13.927,-19.097 3.417,-4.786 7.093,-9.934 9.836,-13.704 0.019,0.07 0.039,0.14 0.058,0.21 -4.234,9.379 -12.486,29.118 -9.178,33.697 3.966,5.49 26.291,11.553 32.712,9.887 5.069,-1.321 8.53,-8.589 10.126,-12.744 3.225,0.434 6.634,0.656 10.159,0.682 -0.604,4.906 -3.399,14.331 -5.92,22.836 -4.051,13.657 -8.64,29.133 -8.931,39.3 -0.515,17.999 -9.36,53.045 -9.449,53.397 l -0.082,0.475 c -3.228,33.187 -12.884,53.289 -14.96,57.29 -4.157,3.091 -12.163,8.743 -19.643,12.301 -12.15,3.085 -34.178,-2.893 -45.549,-12.413 -5.732,-4.799 -8.665,-29.073 -9.363,-45.479 3.343,-11.236 15.764,-52.557 24.338,-75.503"
           style="fill:#ddab7d;fill-opacity:1;fill-rule:nonzero;stroke:none"
           id="path15625"
           inkscape:connector-curvature="0" /><path
           d="m 382.481,317.387 c 0.854,-3.39 9.063,-36.437 9.582,-54.545 0.059,-2.023 0.323,-4.327 0.727,-6.812 3.245,3.211 5.853,7.513 8.049,11.914 2.663,5.448 4.761,11.271 6.538,17.194 1.783,5.929 3.232,11.985 4.475,18.09 1.225,6.108 2.266,12.267 3.015,18.472 -0.221,-6.248 -0.736,-12.492 -1.444,-18.721 -0.726,-6.229 -1.664,-12.447 -2.963,-18.623 -1.296,-6.176 -2.923,-12.321 -5.251,-18.328 -1.181,-2.998 -2.534,-5.963 -4.214,-8.829 -1.032,-1.755 -2.219,-3.47 -3.58,-5.095 0.238,0.06 0.475,0.115 0.712,0.177 4.536,2.868 8.933,5.963 13.116,9.335 6.079,4.906 11.728,10.374 16.604,16.49 4.883,6.1 8.957,12.903 11.633,20.299 2.751,7.37 3.889,15.344 3.493,23.295 0.925,-7.899 0.332,-16.058 -1.98,-23.789 -2.233,-7.754 -5.966,-15.062 -10.591,-21.701 -4.619,-6.659 -10.087,-12.708 -16.038,-18.205 -0.377,-0.347 -0.772,-0.674 -1.154,-1.018 1.355,0.5 2.705,1.014 4.039,1.566 4.11,1.712 8.206,3.542 12.033,5.843 3.828,2.287 7.516,4.884 10.642,8.166 -2.718,-3.624 -6.138,-6.707 -9.756,-9.487 -3.621,-2.802 -7.557,-5.15 -11.546,-7.392 -4,-2.233 -8.136,-4.203 -12.331,-6.043 -1.445,-0.627 -2.892,-1.23 -4.344,-1.82 -2.092,-1.541 -4.212,-3.045 -6.377,-4.481 1.547,-5.966 3.407,-12.243 5.164,-18.168 3.501,-11.805 5.782,-19.729 6.209,-24.783 6.65,-0.345 13.452,-1.27 19.83,-2.582 0.303,0.454 0.602,1.015 0.905,1.548 0.649,1.262 1.272,2.591 1.864,3.955 1.187,2.725 2.291,5.54 3.352,8.374 2.124,5.671 4.107,11.428 6.031,17.207 3.839,11.564 7.463,23.221 10.941,34.922 -2.45,-11.961 -5.05,-23.895 -7.882,-35.794 -1.421,-5.951 -2.904,-11.889 -4.553,-17.816 -0.826,-2.965 -1.696,-5.924 -2.692,-8.892 -0.497,-1.485 -1.04,-2.974 -1.659,-4.486 -0.064,-0.144 -0.128,-0.286 -0.191,-0.428 0.224,-0.057 0.459,-0.11 0.682,-0.168 10.95,-2.868 22.7,-10.872 34.064,-18.612 3.783,-2.577 7.444,-5.065 10.99,-7.317 -0.673,1.594 -1.347,3.187 -2.009,4.817 -6.008,14.782 -8.034,51.676 -8.899,67.429 -0.149,2.734 -0.257,4.697 -0.34,5.601 -0.219,2.442 -0.036,8.339 0.195,15.805 0.321,10.33 0.76,24.477 -0.126,28.31 -1.428,6.195 -8.629,37.867 -12.13,53.978 -3.779,-0.371 -7.444,-0.462 -11.182,-0.392 -4.743,0.116 -9.47,0.59 -14.118,1.446 -4.646,0.906 -9.184,2.302 -13.496,4.157 -4.299,1.923 -8.233,4.526 -11.728,7.548 3.833,-2.61 7.944,-4.685 12.294,-6.061 4.369,-1.309 8.841,-2.135 13.353,-2.49 4.52,-0.305 9.048,-0.237 13.54,0.17 3.813,0.357 7.706,0.949 11.348,1.785 3.328,11.553 4.879,37.494 4.299,72.144 -0.725,-0.242 -1.441,-0.451 -2.149,-0.618 -2.519,-0.603 -4.98,-0.902 -7.428,-1.104 -4.892,-0.381 -9.714,-0.274 -14.498,0.028 -9.568,0.636 -18.973,2.166 -28.24,4.156 9.428,-0.944 18.9,-1.403 28.271,-0.974 4.676,0.226 9.34,0.655 13.836,1.52 2.238,0.439 4.451,0.976 6.475,1.711 1.012,0.361 1.969,0.79 2.767,1.26 0.401,0.213 0.751,0.487 0.991,0.713 2.101,34.978 -0.316,60.823 -3.195,77.768 -0.505,-0.308 -1.015,-0.599 -1.529,-0.861 -2.26,-1.15 -4.592,-1.904 -6.912,-2.449 -4.652,-1.069 -9.281,-1.348 -13.85,-1.325 -9.137,0.123 -18.092,1.422 -26.854,3.373 8.918,-0.906 17.921,-1.121 26.696,-0.195 4.369,0.492 8.699,1.299 12.663,2.726 3.416,1.221 6.566,3.036 8.546,5.404 l -0.062,0.3 0.018,0.39 c 1.16,26.243 -6.447,76.685 -23.237,99.246 -5.762,7.742 -12.831,10.986 -20.444,9.37 -8.678,-1.84 -17.012,-10.087 -18.973,-18.777 -2.177,-9.636 -2.69,-40.174 -3.066,-62.471 -0.305,-18.153 -0.51,-28.583 -1.162,-31.844 -1.471,-7.356 -5.178,-71.282 -5.24,-74.702 0,-1.604 -4.883,-48.938 -6.381,-63.407 l -0.295,-2.855 h -0.025 l -1.46,-14.604 c 3,-9.81 6.012,-22.859 7.592,-38.938"
           style="fill:#ddab7d;fill-opacity:1;fill-rule:nonzero;stroke:none"
           id="path15627"
           inkscape:connector-curvature="0" /><path
           d="m 425.815,167.79 c -3.147,-0.204 -6.334,-1.402 -8.871,-3.555 -3.006,-2.475 -4.983,-6.117 -5.725,-9.938 -0.158,-0.96 -0.201,-1.94 -0.299,-2.905 0.015,-0.972 0.069,-1.947 0.136,-2.913 0.202,-0.953 0.4,-1.904 0.631,-2.84 0.338,-0.91 0.667,-1.823 1.082,-2.688 1.305,-2.637 3.358,-4.86 5.784,-6.326 -0.741,-1.188 -1.546,-2.138 -2.419,-2.775 -2.804,-2.053 -8.743,-1.891 -16.729,0.444 -11.606,3.396 -21.862,9.632 -22.567,11.446 -1.293,4.399 1.953,32.84 7.924,38.573 0.995,0.957 3.064,1.428 5.919,1.428 3.837,0 9.09,-0.851 15.06,-2.515 11.475,-3.2 19.569,-7.667 20.491,-9.538 -0.075,-1.596 -0.211,-3.619 -0.417,-5.898 m -6.825,-30.413 c -1.777,1.972 -3.113,4.181 -3.939,6.552 -1.093,3.155 -1.348,6.559 -0.706,9.782 0.581,3.233 2.069,6.277 4.301,8.729 1.88,2.058 4.334,3.597 7.113,4.734 -0.88,-9.422 -2.919,-22.896 -6.769,-29.797 m -12.394,48.914 c -7.054,1.968 -19.557,4.62 -24.037,0.318 -7.399,-7.104 -10.122,-37.185 -8.773,-41.766 1.127,-3.834 13.34,-9.811 21.723,-12.653 4.528,-1.535 9.996,-2.953 14.748,-2.953 3.014,0 5.74,0.572 7.754,2.043 9.589,7.01 11.256,38.957 11.414,42.577 l 0.011,0.246 -0.064,0.236 c -1.283,4.788 -15.459,9.912 -22.776,11.952 M 275.203,140.815 c 1.604,1.225 3.285,2.368 5.188,3.284 -0.983,-1.869 -2.184,-3.51 -3.463,-5.07 -1.282,-1.557 -2.635,-3.041 -4.084,-4.426 -1.44,-1.394 -2.967,-2.698 -4.571,-3.922 -1.603,-1.224 -3.285,-2.368 -5.183,-3.286 0.983,1.865 2.186,3.504 3.466,5.065 1.28,1.56 2.635,3.04 4.079,4.431 1.435,1.398 2.966,2.699 4.568,3.924 m -17.978,-6.072 c -2.623,-1.989 -5.33,-3.881 -8.254,-5.505 2.068,2.626 4.316,5.03 6.623,7.366 2.304,2.333 4.664,4.598 7.08,6.795 2.41,2.205 4.886,4.332 7.369,6.445 l 3.73,3.161 c 0.631,0.517 1.235,1.059 1.841,1.603 0.58,0.564 1.222,1.079 1.595,1.82 -0.05,-0.855 -0.504,-1.642 -0.904,-2.369 -0.422,-0.735 -0.905,-1.422 -1.381,-2.112 -0.99,-1.347 -2.037,-2.641 -3.142,-3.875 -2.198,-2.478 -4.528,-4.815 -6.966,-7.025 -2.431,-2.218 -4.969,-4.311 -7.591,-6.304 m 56.685,46.578 c 2.663,1.496 5.371,2.913 8.24,4.14 -2.105,-2.309 -4.449,-4.315 -6.861,-6.205 -2.416,-1.889 -4.906,-3.671 -7.475,-5.327 -2.564,-1.666 -5.207,-3.208 -7.918,-4.642 -2.714,-1.42 -5.487,-2.781 -8.476,-3.712 4.633,4.131 9.564,7.685 14.664,11.024 2.551,1.663 5.166,3.225 7.826,4.722 m -19.806,-5.778 c -3.709,-2.662 -7.358,-5.453 -11.411,-7.727 3.214,3.289 6.409,6.598 9.852,9.647 3.401,3.093 6.98,5.99 10.685,8.741 3.739,2.699 7.608,5.268 11.785,7.355 2.085,1.045 4.256,1.957 6.53,2.604 1.139,0.312 2.316,0.53 3.5,0.624 1.193,0.033 2.418,-0.075 3.469,-0.588 -2.309,0.294 -4.422,-0.553 -6.432,-1.503 -2.018,-0.944 -3.94,-2.111 -5.848,-3.3 -3.781,-2.444 -7.478,-5.056 -11.127,-7.757 z m 70.235,72.942 c 2.868,0.374 5.76,0.643 8.72,0.611 -2.678,-1.262 -5.427,-2.208 -8.202,-3.039 -2.775,-0.829 -5.574,-1.55 -8.403,-2.132 -2.827,-0.592 -5.683,-1.051 -8.564,-1.386 -1.442,-0.173 -2.893,-0.284 -4.352,-0.362 -1.458,-0.025 -2.943,-0.146 -4.419,0.158 2.782,0.868 5.5,1.89 8.29,2.631 2.779,0.789 5.574,1.488 8.397,2.073 2.818,0.597 5.665,1.068 8.533,1.446 m -28.262,1.05 -13.53,-4.151 c 4.021,2.561 8.308,4.643 12.692,6.478 4.385,1.845 8.912,3.356 13.536,4.569 4.634,1.153 9.383,2.017 14.213,2.16 4.774,0.112 9.846,-0.343 14.047,-2.734 -4.635,1.118 -9.276,0.799 -13.85,0.259 -4.578,-0.63 -9.121,-1.589 -13.622,-2.766 -4.518,-1.12 -8.994,-2.47 -13.486,-3.815 M 183.054,155.074 c 3.161,-1.153 6.339,-1.974 9.527,-2.591 4.493,-0.884 8.998,-1.458 13.502,-1.812 7.777,-9.747 15.186,-17.937 20.764,-21.894 7.3,-5.181 14.092,-7.709 19.718,-8.86 3.281,-1.92 7.625,-3.659 14.635,-4.677 -0.159,-1.912 -0.368,-3.825 -0.633,-5.718 -0.627,-4.367 -1.559,-8.694 -2.832,-12.93 -1.336,-4.213 -3.052,-8.305 -5.213,-12.181 -2.247,-3.826 -5.039,-7.319 -8.325,-10.362 3.456,2.837 6.492,6.194 9.002,9.944 2.424,3.797 4.424,7.863 6.042,12.084 1.554,4.241 2.771,8.607 3.677,13.039 0.385,1.923 0.713,3.848 0.992,5.783 0.782,-0.085 1.584,-0.164 2.428,-0.231 16.373,-1.314 28.887,11.62 33.912,17.844 6.115,-4.934 14.123,-11.067 19.926,-14.33 0.199,-1.513 0.38,-3.027 0.531,-4.534 0.526,-5.564 0.735,-11.175 0.439,-16.775 -0.345,-5.589 -1.148,-11.159 -2.614,-16.601 -1.599,-5.391 -3.915,-10.585 -7.12,-15.319 3.625,4.405 6.482,9.449 8.629,14.815 2.015,5.41 3.379,11.057 4.271,16.784 0.157,1.075 0.28,2.156 0.403,3.236 0.486,-7.958 1.994,-15.859 4.789,-23.32 3.247,-8.8 8.558,-16.82 15.37,-23.131 3.401,-3.172 7.248,-5.8 11.24,-8.086 1.856,-1.076 3.783,-1.998 5.743,-2.84 -9.961,-2.051 -71.167,-13.995 -94.447,-3.207 -26.994,12.513 -45.338,37.787 -66.182,74.516 -12.85,22.639 -16.677,34.631 -18.558,41.504 0.128,-0.049 0.256,-0.101 0.384,-0.15 m -7.197,20.299 c 2.027,-0.932 4.101,-1.719 6.208,-2.353 2.101,-0.648 4.23,-1.154 6.376,-1.477 0.716,-0.124 1.436,-0.212 2.157,-0.285 4.727,-6.589 9.679,-13.256 14.513,-19.368 -3.965,1.03 -7.874,2.224 -11.655,3.653 -2.935,1.093 -5.784,2.375 -8.405,3.866 -1.786,1.022 -3.524,2.184 -4.893,3.457 -0.555,0.941 -1.262,1.719 -2.264,2.346 -1.075,0.834 -2.078,5.235 -2.522,10.393 0.161,-0.077 0.32,-0.156 0.485,-0.232 m 178.112,32.455 c 4.771,2.418 12.637,4.825 18.652,5.756 -0.444,-1.694 -1.065,-3.201 -2.042,-4.379 -1.316,-1.619 -3.187,-2.586 -5.246,-3.087 -2.063,-0.484 -4.307,-0.524 -6.499,-0.123 -1.67,0.328 -3.32,0.87 -4.865,1.833 m -3.883,-2.75 c 0.539,0.745 1.66,1.555 3.162,2.373 1.092,-1.74 2.929,-3.069 4.879,-3.826 2.477,-0.972 5.267,-1.235 7.946,-0.6 2.662,0.596 5.274,2.314 6.588,4.828 1.014,1.876 1.212,3.956 0.886,5.864 2.464,0.327 4.551,0.378 5.871,0.033 3.257,-0.849 6.09,-6.201 7.706,-10.187 -3.867,-0.739 -7.395,-1.818 -10.353,-3.341 -7.797,-4.018 -14.781,-12.375 -18.61,-22.426 -5.396,12.483 -9.611,25.155 -8.075,27.282 m -27.723,-52.923 c 4.5,4.974 10.837,10.934 16.477,13.308 -0.261,-2.37 -0.702,-4.524 -1.569,-6.411 -0.875,-1.911 -2.167,-3.509 -3.781,-4.691 -1.626,-1.164 -3.551,-1.926 -5.65,-2.235 -1.73,-0.255 -3.553,-0.197 -5.477,0.029 m 5.571,-2.501 c 2.554,-0.151 5.261,0.562 7.427,2.136 2.179,1.557 3.694,3.965 4.266,6.48 0.587,2.486 0.277,5.053 -0.737,7.212 2.15,0.899 4.203,1.296 6.002,0.877 3.25,-2.61 7.913,-8.057 10.706,-11.455 0.298,-1.851 0.723,-3.699 1.3,-5.529 1.368,-4.347 3.159,-8.107 5.255,-11.447 -14.368,-9.703 -27.954,-4.801 -28.544,-4.58 l -0.546,0.21 -14.201,14.504 c 0.853,1.064 1.914,2.316 3.101,3.642 1.713,-1.183 3.777,-1.934 5.971,-2.05 M 376.3,375.172 h 0.025 l 0.295,2.854 c 1.498,14.469 6.381,61.804 6.381,63.408 0.062,3.419 3.769,67.346 5.24,74.701 0.653,3.261 0.858,13.691 1.162,31.845 0.376,22.297 0.889,52.834 3.066,62.47 1.962,8.69 10.295,16.938 18.973,18.777 7.613,1.617 14.682,-1.628 20.444,-9.37 16.79,-22.561 24.397,-73.003 23.237,-99.245 l -0.018,-0.39 0.062,-0.301 c -1.979,-2.367 -5.129,-4.183 -8.546,-5.403 -3.964,-1.428 -8.294,-2.235 -12.663,-2.727 -8.775,-0.925 -17.778,-0.711 -26.696,0.195 8.762,-1.95 17.717,-3.249 26.854,-3.373 4.569,-0.023 9.198,0.257 13.849,1.325 2.321,0.545 4.652,1.3 6.912,2.449 0.516,0.262 1.025,0.553 1.53,0.861 2.879,-16.944 5.296,-42.79 3.196,-77.768 -0.241,-0.225 -0.591,-0.5 -0.992,-0.712 -0.798,-0.47 -1.755,-0.9 -2.767,-1.26 -2.024,-0.736 -4.238,-1.272 -6.475,-1.712 -4.496,-0.865 -9.16,-1.294 -13.836,-1.52 -9.37,-0.429 -18.843,0.031 -28.271,0.974 9.267,-1.989 18.673,-3.52 28.24,-4.155 4.785,-0.303 9.606,-0.409 14.498,-0.029 2.448,0.203 4.909,0.502 7.427,1.104 0.709,0.168 1.426,0.376 2.15,0.619 0.58,-34.649 -0.971,-60.592 -4.299,-72.143 -3.642,-0.836 -7.535,-1.43 -11.348,-1.786 -4.492,-0.407 -9.02,-0.476 -13.539,-0.172 -4.514,0.355 -8.986,1.183 -13.353,2.491 -4.35,1.377 -8.462,3.45 -12.295,6.061 3.495,-3.022 7.429,-5.624 11.728,-7.548 4.312,-1.855 8.85,-3.25 13.496,-4.156 4.648,-0.857 9.375,-1.331 14.118,-1.447 3.738,-0.07 7.403,0.021 11.183,0.392 3.501,-16.111 10.701,-47.782 12.129,-53.978 0.886,-3.833 0.447,-17.979 0.126,-28.309 -0.231,-7.465 -0.415,-13.364 -0.194,-15.806 0.083,-0.903 0.19,-2.867 0.339,-5.601 0.865,-15.753 2.892,-52.646 8.899,-67.429 0.662,-1.629 1.336,-3.223 2.008,-4.817 -3.545,2.253 -7.206,4.74 -10.989,7.317 -11.363,7.741 -23.114,15.745 -34.065,18.613 -0.222,0.057 -0.457,0.11 -0.681,0.168 0.063,0.142 0.126,0.285 0.191,0.427 0.619,1.512 1.161,3.001 1.659,4.487 0.997,2.968 1.867,5.926 2.692,8.891 1.649,5.928 3.132,11.868 4.554,17.816 2.832,11.899 5.431,23.833 7.881,35.794 -3.478,-11.7 -7.102,-23.358 -10.942,-34.921 -1.923,-5.779 -3.906,-11.537 -6.03,-17.208 -1.062,-2.834 -2.164,-5.649 -3.352,-8.374 -0.592,-1.363 -1.216,-2.693 -1.864,-3.954 -0.303,-0.534 -0.602,-1.095 -0.904,-1.548 -6.38,1.311 -13.18,2.236 -19.831,2.582 -0.427,5.054 -2.707,12.977 -6.208,24.782 -1.758,5.926 -3.618,12.202 -5.165,18.168 2.166,1.437 4.286,2.94 6.377,4.482 1.453,0.59 2.899,1.193 4.344,1.819 4.196,1.841 8.331,3.811 12.331,6.043 3.989,2.242 7.924,4.59 11.546,7.392 3.618,2.781 7.037,5.862 9.755,9.486 -3.126,-3.281 -6.812,-5.879 -10.642,-8.164 -3.827,-2.302 -7.921,-4.132 -12.032,-5.844 -1.334,-0.551 -2.683,-1.066 -4.038,-1.566 0.381,0.344 0.776,0.671 1.153,1.019 5.951,5.496 11.419,11.545 16.038,18.204 4.626,6.639 8.358,13.948 10.591,21.702 2.312,7.73 2.906,15.889 1.98,23.788 0.396,-7.951 -0.741,-15.923 -3.492,-23.295 -2.677,-7.396 -6.75,-14.199 -11.634,-20.298 -4.876,-6.117 -10.526,-11.584 -16.604,-16.491 -4.183,-3.372 -8.58,-6.467 -13.116,-9.335 -0.237,-0.062 -0.474,-0.117 -0.712,-0.178 1.362,1.627 2.548,3.342 3.58,5.097 1.68,2.865 3.033,5.83 4.214,8.829 2.327,6.007 3.955,12.152 5.251,18.327 1.299,6.176 2.237,12.395 2.962,18.623 0.709,6.23 1.225,12.473 1.445,18.721 -0.749,-6.204 -1.79,-12.364 -3.015,-18.472 -1.242,-6.104 -2.692,-12.16 -4.476,-18.089 -1.776,-5.924 -3.873,-11.747 -6.538,-17.193 -2.195,-4.403 -4.803,-8.704 -8.048,-11.916 -0.405,2.485 -0.668,4.79 -0.726,6.812 -0.519,18.109 -8.728,51.155 -9.582,54.545 -1.581,16.079 -4.594,29.129 -7.594,38.938 z m -80.329,2.782 c 11.369,9.52 33.4,15.497 45.55,12.413 7.479,-3.557 15.486,-9.211 19.642,-12.302 2.075,-4.002 11.733,-24.104 14.96,-57.29 l 0.082,-0.476 c 0.09,-0.351 8.934,-35.396 9.449,-53.396 0.291,-10.167 4.88,-25.643 8.931,-39.299 2.521,-8.504 5.315,-17.93 5.92,-22.836 -3.525,-0.027 -6.935,-0.248 -10.158,-0.683 -1.597,4.155 -5.058,11.423 -10.127,12.744 -6.42,1.666 -28.745,-4.396 -32.712,-9.887 -3.308,-4.579 4.944,-24.318 9.179,-33.697 -0.02,-0.07 -0.04,-0.14 -0.06,-0.21 -2.742,3.77 -6.419,8.918 -9.836,13.704 -7.739,10.843 -12.541,17.54 -13.926,19.097 -2.511,3.191 -17.887,40.344 -21.92,51.135 -8.572,22.946 -20.994,64.268 -24.338,75.503 0.701,16.406 3.631,40.68 9.364,45.48 m -81.94,-80.618 0.017,0.084 c 0.927,4.864 19.809,27.865 27.087,28.445 6.472,0.514 34.428,0.111 40.803,0.012 4.644,-15.462 15.361,-50.564 23.046,-71.134 1.87,-5.002 19.428,-48.971 23.098,-53.098 1.287,-1.453 7.792,-10.565 13.53,-18.603 6.911,-9.681 11.535,-16.133 13.569,-18.703 -0.088,-1.292 -0.118,-2.591 -0.086,-3.894 -2.736,3.162 -5.995,6.682 -8.505,8.627 l -0.242,0.19 -0.297,0.084 C 333.912,172.8 316.234,149.887 315.487,148.91 l -0.837,-1.096 14.617,-14.924 c -2.3,-0.362 -6.173,-0.518 -10.13,1.357 -3.437,1.628 -8.409,6.033 -14.706,11.608 -6.263,5.545 -14.056,12.447 -23.358,19.24 -13.944,10.187 -15.851,13.577 -18.265,17.87 -0.761,1.351 -1.621,2.882 -2.86,4.689 -4.631,6.771 -45.041,67.529 -52.785,79.176 0.813,2.064 1.26,3.993 1.418,5.534 z m -24.968,-45.648 c 6.875,1.501 11.524,5.041 14.57,8.956 10.781,-16.209 46.695,-70.196 51.063,-76.581 1.08,-1.581 1.835,-2.92 2.566,-4.218 2.791,-4.965 4.998,-8.887 20.058,-19.889 5.374,-3.926 10.246,-7.906 14.618,-11.64 -5.462,-18.122 -31.208,-22.236 -31.473,-22.276 l -0.406,-0.089 c -0.131,-0.037 -13.17,-3.592 -29.532,8.015 -17.654,12.526 -57.202,73.781 -61.315,80.194 0.488,6.841 1.15,14.571 1.882,22.005 6.882,7.217 15.52,14.988 17.969,15.523 m -20.5,-48.224 c 4.776,-7.287 12.419,-18.736 20.896,-30.616 -0.19,0.081 -0.391,0.139 -0.58,0.224 -1.923,0.812 -3.766,1.781 -5.523,2.855 -1.762,1.062 -3.438,2.243 -5.013,3.519 -1.375,1.11 -2.769,2.373 -3.864,3.568 -1.253,1.674 -4.714,6.724 -5.871,10.19 -0.312,1.126 -0.293,4.93 -0.045,10.26 m 207.843,-160.268 -0.205,0.019 -12.405,-0.444 -0.564,-0.072 c -0.039,-0.008 -0.291,-0.062 -0.714,-0.151 -2.065,1.014 -4.078,2.119 -5.996,3.386 -3.806,2.483 -7.416,5.272 -10.538,8.544 -6.255,6.516 -10.865,14.469 -13.472,23.028 -2.65,8.549 -3.574,17.567 -3.198,26.473 0.18,4.097 0.634,8.181 1.374,12.189 13.361,1.132 28.425,4.892 36.687,7.94 6.271,-3.327 19.223,-9.918 31.631,-14.462 0.065,-0.217 0.121,-0.443 0.197,-0.651 0.514,-1.753 1.247,-3.361 1.942,-4.987 1.563,-3.153 3.297,-6.195 5.44,-8.934 4.176,-5.545 9.44,-10.197 15.348,-13.631 l 2.237,-1.247 1.115,-0.621 1.176,-0.498 4.706,-1.947 c 3.269,-0.902 6.466,-1.999 9.819,-2.378 l 2.482,-0.404 1.238,-0.195 1.255,-0.063 5,-0.253 c 1.66,-0.165 3.328,0.067 4.986,0.12 l 0.269,0.015 C 444.298,61.949 416.281,39.429 376.406,43.196 m 86.476,38.295 -0.244,-0.328 c -0.08,-0.108 -2.153,-2.85 -6.055,-6.824 l -0.638,0.016 c -1.65,0.08 -3.305,-0.02 -4.938,0.276 l -4.895,0.641 -1.219,0.161 -1.198,0.288 -2.386,0.589 c -3.223,0.623 -6.227,1.942 -9.269,3.041 l -4.319,2.211 -1.073,0.554 -1.004,0.673 -2.004,1.34 c -5.269,3.657 -9.751,8.336 -13.133,13.666 -1.745,2.631 -3.075,5.502 -4.234,8.38 -0.132,0.402 -0.264,0.803 -0.398,1.203 8.345,-2.368 17.627,-3.578 25.104,-4.197 1.305,-1.775 2.709,-3.387 4.218,-4.956 2.009,-2.066 4.204,-3.946 6.567,-5.579 2.368,-1.629 4.964,-2.911 7.651,-3.851 2.703,-0.942 5.556,-1.27 8.356,-1.305 -2.796,0.301 -5.542,0.889 -8.07,2.047 -2.513,1.159 -4.872,2.614 -6.982,4.381 -2.105,1.772 -4.018,3.753 -5.735,5.888 -0.79,0.989 -1.551,2.025 -2.268,3.08 6.091,-1.1 11.106,-1.753 13.686,-1.753 0.669,0 1.174,0.043 1.494,0.135 l -1.749,6.118 c 0.07,0.02 0.161,0.047 0.273,0.057 -3.346,-0.32 -35.077,5.13 -51.016,12.126 -15.525,6.816 -28.832,13.909 -34.434,31.716 -5.374,17.074 4.392,36.931 16.716,43.278 11.871,6.117 35.393,4.16 52.223,-0.248 9.887,-2.589 21.177,-10.28 32.095,-17.715 4.962,-3.381 9.725,-6.62 14.353,-9.412 2.268,-4.397 3.729,-9.066 4.78,-13.773 1.037,-4.939 1.552,-9.973 1.172,-14.925 -0.316,-4.951 -1.575,-9.816 -3.851,-14.234 -1.146,-2.203 -2.509,-4.318 -4.102,-6.288 -1.597,-1.972 -3.421,-3.769 -5.327,-5.554 2.31,1.206 4.469,2.726 6.461,4.479 1.941,1.802 3.689,3.853 5.121,6.128 1.468,2.254 2.564,4.749 3.398,7.313 0.791,2.582 1.255,5.252 1.47,7.929 0.349,5.365 -0.361,10.735 -1.951,15.784 -1.472,4.625 -3.565,9.142 -6.675,12.84 1.335,-0.798 2.657,-1.548 3.971,-2.26 4.579,-10.602 8.733,-20.53 9.431,-27.856 0.96,-10.094 -0.326,-23.888 -5.364,-31.952 -4.956,-7.93 -23.504,-22.92 -23.691,-23.07 z m 40.46,56.334 c -0.907,9.528 -5.648,20.481 -11.137,33.164 l -0.076,0.178 c -1.736,4.016 -3.532,8.167 -5.246,12.383 -5.304,13.056 -7.404,51.281 -8.096,63.847 -0.166,3.063 -0.275,4.997 -0.367,6 -0.161,1.773 0.049,8.508 0.235,14.452 0.469,15.18 0.716,26.3 -0.406,31.16 -1.408,6.104 -8.828,38.74 -12.259,54.575 4.815,16.808 5.204,51.854 4.662,78.642 l -0.021,1.049 c 0.005,0.19 0.029,0.573 0.065,1.137 l 0.017,0.3 c 1.935,32.125 0.405,61.979 -4.425,86.39 0.996,27.599 -6.348,79.71 -25.469,105.403 -8.421,11.317 -19.67,16.15 -31.685,13.617 -13.013,-2.758 -24.589,-14.206 -27.53,-27.22 -2.426,-10.753 -2.91,-39.429 -3.334,-64.735 -0.206,-12.213 -0.46,-27.413 -0.948,-29.848 -1.78,-8.902 -5.228,-72.104 -5.445,-76.556 h -0.006 c -0.098,-1.781 -2.705,-27.47 -5.414,-53.758 -4.792,3.495 -12.768,8.949 -20.461,12.564 l -1.321,0.483 c -15.788,4.235 -41.368,-2.43 -55.855,-14.561 -8.744,-7.322 -11.972,-30.034 -13.103,-49.085 l -0.983,-0.289 c -11.283,0.141 -29.035,0.28 -34.484,-0.151 -13.693,-1.093 -35.428,-29.063 -37.105,-37.282 l -5.486,-25.133 -0.145,-0.937 c -0.106,-0.91 -1.298,-8.966 -10.826,-11.047 -6.293,-1.375 -16.768,-11.393 -24.444,-19.553 l -1.857,-1.97 -0.267,-2.691 c -2.794,-28.045 -3.495,-44.411 -2.082,-48.648 1.323,-3.972 4.05,-8.364 5.992,-11.207 0.324,-10.917 2.57,-18.228 6.687,-21.768 0.195,-0.634 0.445,-1.576 0.641,-2.325 1.841,-6.954 5.266,-19.896 20.185,-46.181 21.323,-37.574 41.59,-65.407 71.185,-79.123 7.817,-3.622 19.325,-5.461 34.206,-5.461 28.969,0 62.503,6.867 67.962,8.028 l 10.99,0.395 c 3.126,-0.281 6.273,-0.422 9.357,-0.422 49.913,0.004 80.879,36.051 85.662,42.02 4.125,3.372 20.074,16.689 25.43,25.258 6.851,10.962 8.111,27.285 7.007,38.906"
           style="fill:#110f0d;fill-opacity:1;fill-rule:nonzero;stroke:none"
           id="path15629"
           inkscape:connector-curvature="0" /></g></g></g></svg>