<?xml version="1.0" encoding="UTF-8" standalone="no"?>
<svg
   xmlns:dc="http://purl.org/dc/elements/1.1/"
   xmlns:cc="http://creativecommons.org/ns#"
   xmlns:rdf="http://www.w3.org/1999/02/22-rdf-syntax-ns#"
   xmlns:svg="http://www.w3.org/2000/svg"
   xmlns="http://www.w3.org/2000/svg"
   version="1.1"
   id="svg2"
   viewBox="0 0 1275.5905 2267.7166"
   height="640mm"
   width="360mm">
  <defs
     id="defs4" />
  <metadata
     id="metadata7">
    <rdf:RDF>
      <cc:Work
         rdf:about="">
        <dc:format>image/svg+xml</dc:format>
        <dc:type
           rdf:resource="http://purl.org/dc/dcmitype/StillImage" />
        <dc:title></dc:title>
      </cc:Work>
    </rdf:RDF>
  </metadata>
  <g
     transform="translate(0,1215.3544)"
     id="layer1">
    <g
       transform="matrix(2.1096808,0,0,2.1096808,121.14978,-562.08146)"
       id="g6056">
      <path
         style="fill:#bf9c66"
         d="m 251.769,213.947 c 44.833,-3.058 81.729,-34.945 92.313,-77.277 l 0,86.813 c 0,0 -6.285,-25.674 -33.762,-18.461 -17.101,4.486 -30.033,11.919 -58.551,8.929 l 0,-0.004 M 344.082,86.825 344.082,0 c 0,0 -6.285,25.689 -33.762,18.473 C 293.219,13.988 280.287,6.552 251.769,9.541 l -0.003,0.006 c 44.836,3.055 81.733,34.949 92.316,77.278 m -150.895,24.922 c 0,-43.132 30.314,-79.179 70.801,-88.009 -6.212,-1.354 -12.67,-2.081 -19.29,-2.081 -49.758,0 -90.086,40.335 -90.086,90.09 0,49.756 40.328,90.09 90.086,90.09 6.62,0 13.078,-0.72 19.29,-2.077 -40.487,-8.833 -70.801,-44.88 -70.801,-88.013"
         id="path6046" />
      <path
         d="m 6.601,295.641 c 4.632,-4.972 10.964,-7.448 19.345,-7.569 7.021,-0.108 13.121,0.782 15.806,1.172 0.648,0.096 1.082,0.291 1.109,0.965 0,0 -0.151,10.122 -0.151,10.125 -0.024,0.656 -0.05,1.636 -0.822,1.661 -0.816,0.027 -0.851,-0.885 -0.875,-1.617 -0.087,-2.442 -1.199,-4.91 -2.773,-6.149 -2.053,-1.646 -6.882,-3.324 -12.63,-3.126 -6.532,0.231 -11.188,1.889 -14.24,5.07 -4.786,4.916 -5.234,11.124 -5.049,16.547 0.396,11.275 9.263,22.641 23.423,22.146 4.063,-0.14 8.175,-0.656 10.726,-3.457 1.236,-1.391 1.938,-4.137 2.087,-5.256 0.08,-0.538 0.182,-1.212 0.891,-1.236 0.229,-0.007 0.757,0.093 0.797,1.239 0.019,0.482 -0.553,6.045 -1.122,8.252 -0.361,1.305 -0.522,1.503 -1.759,2.105 -2.696,1.193 -7.708,1.756 -11.495,1.886 -9.167,0.322 -15.972,-1.65 -21.404,-6.198 -5.327,-4.452 -8.171,-10.763 -8.45,-18.755 -0.176,-5.009 1.46,-12.318 6.586,-17.805 m 81.192,40 c 2.881,0 17.236,-1.039 17.236,-21.49 0,-15.907 -9.854,-23.147 -19.015,-23.147 -11.257,0 -18.25,7.899 -18.25,20.606 0.001,14.147 8.237,24.031 20.029,24.031 m -1.33,-47.409 c 15.122,0 25.281,9.699 25.281,24.131 0,15.242 -10.793,26.305 -25.664,26.305 -17.153,0 -24.969,-13.104 -24.969,-25.271 0.001,-9.734 6.883,-25.165 25.352,-25.165 m 129.08,4.029 c 3.345,0.118 3.858,1.274 4.235,2.124 0.278,0.678 0.35,1.676 0.35,2.155 0,0.946 0.448,1.149 0.815,1.149 0.542,0 0.689,-0.692 0.746,-0.955 0.006,-0.027 0.825,-7.21 0.825,-7.21 0,-0.303 -0.121,-0.556 -0.325,-0.727 -0.16,-0.123 -0.343,-0.173 -0.507,-0.142 -1.849,0.488 -3.32,0.454 -3.333,0.454 l -24.313,0 c -0.359,0 -1.324,0.006 -1.324,0.819 0,0.402 0.344,0.689 0.816,0.689 0.545,0 1.596,0.068 2.09,0.188 1.843,0.381 2.18,1.132 2.313,3.343 0,0.024 0.004,38.931 0.004,39.048 0,1.797 -0.541,2.811 -1.604,3.018 -0.705,0.158 -1.392,0.247 -1.85,0.247 -0.563,0 -0.815,0.347 -0.815,0.693 0,0.822 0.964,0.822 1.329,0.822 l 24.483,0 c 2.479,0 3.23,0 3.731,-1.89 0.334,-1.379 0.838,-5.738 0.838,-6.242 0,-0.47 0,-1.261 -0.689,-1.261 -0.655,0 -0.779,0.692 -0.875,1.202 -0.43,2.532 -1.156,3.707 -2.681,4.347 -1.589,0.684 -4.341,0.684 -5.985,0.684 -6.251,0 -9.442,-0.872 -9.621,-4.919 l 0,-16.271 11.792,0.003 c 2.427,0 2.764,1.162 3.011,2.01 0.241,0.772 0.241,1.369 0.241,2.01 0,0.531 0.297,0.875 0.748,0.875 0.684,0 0.705,-0.525 0.736,-1.188 l 0.779,-7.924 c 0,-0.795 -0.474,-0.856 -0.619,-0.856 -0.367,0 -0.634,0.303 -1.032,0.757 l -0.157,0.177 c -0.479,0.535 -1.012,0.788 -2.758,0.788 l -12.741,0 0,-18.019 11.347,0 z m 27.282,8.397 c 0.148,4.294 2.662,7.974 9.801,13.434 l 2.943,2.247 c 5.809,4.465 7.648,7.003 7.791,11.137 0.143,4.047 -2.938,8.051 -8.703,8.255 -2.354,0.084 -9.248,-0.287 -10.596,-5.871 -0.21,-0.854 -0.238,-1.719 -0.257,-2.281 -0.012,-0.355 -0.033,-1.002 -0.785,-0.978 -0.692,0.024 -0.745,0.866 -0.77,1.317 0,0.016 -0.08,6.758 -0.08,6.758 0.062,1.707 0.123,2.171 1.215,2.659 l 0.003,0 c 2.442,1.098 6.566,1.527 9.974,1.407 3.847,-0.137 7.677,-1.383 10.256,-3.12 4.644,-3.135 5.546,-7.643 5.432,-10.963 -0.17,-4.916 -2.705,-8.892 -10.777,-14.804 l -1.824,-1.332 c -6.308,-4.813 -8.4,-6.526 -8.515,-9.888 -0.151,-4.223 3.286,-7.451 7.775,-7.608 5.349,-0.183 8.75,1.947 9.307,2.894 0.371,0.609 0.81,2.264 0.902,3.024 0.08,0.494 0.18,1.101 0.851,1.075 0.748,-0.024 0.717,-1.178 0.692,-1.796 0,0.009 0.009,-6.73 0.009,-6.73 -0.027,-0.758 -0.686,-0.733 -0.968,-0.724 -0.497,0.019 -0.982,-0.124 -2.167,-0.244 -2.315,-0.278 -5.277,-0.448 -7.519,-0.371 -8.172,0.284 -14.238,5.373 -13.99,12.503 m 116.601,34.983 c 2.878,0 17.245,-1.039 17.245,-21.49 0,-15.907 -9.862,-23.147 -19.023,-23.147 -11.26,0 -18.253,7.899 -18.253,20.606 0,14.147 8.236,24.031 20.031,24.031 m -1.333,-47.409 c 15.125,0 25.284,9.699 25.284,24.131 0,15.242 -10.796,26.305 -25.664,26.305 -17.156,0 -24.969,-13.104 -24.969,-25.271 10e-4,-9.734 6.882,-25.165 25.349,-25.165 m 49.156,4.053 c -6.743,4.233 -10.762,12.145 -10.762,21.157 0,8.642 4.13,15.282 7.67,18.343 5.219,4.57 12.317,6.883 21.104,6.883 3.96,0 9.615,-0.761 13.628,-2.897 0.952,-0.568 0.98,-0.896 0.98,-3.7 l 0,-13.725 c 0.12,-2.143 0.724,-3.049 2.226,-3.326 -0.003,0 1.534,-0.177 1.534,-0.177 0.476,0 0.822,-0.294 0.822,-0.692 0,-0.811 -0.931,-0.811 -1.333,-0.811 l -13.405,0 c -0.396,0 -1.326,0 -1.326,0.811 0,0.398 0.346,0.692 0.825,0.692 0.575,0 1.62,0.059 2.077,0.173 2.301,0.631 2.632,1.064 2.632,6.255 l 0,10.8 c 0,0.931 -0.353,1.549 -1.116,1.95 -1.537,0.897 -4.669,1.299 -7.093,1.299 -6.341,0 -11.869,-2.257 -16.438,-6.712 -2.301,-2.235 -6.653,-8.731 -6.653,-17.385 0,-6.886 2.313,-12.831 6.181,-15.9 4.606,-3.624 9.17,-4.125 13.411,-4.125 7.865,0 13.044,2.517 14.683,5.015 1.066,1.694 1.259,3.661 1.286,4.038 0.059,0.557 0.137,1.24 0.748,1.24 0.878,0 0.878,-0.946 0.878,-1.639 0,0.006 0.442,-9.013 0.442,-9.013 0,-0.371 -0.183,-0.808 -1.032,-0.888 -1.7,-0.071 -3.89,-0.343 -5.107,-0.627 -0.554,-0.121 -5.436,-1.092 -9.798,-1.092 -4.92,0 -11.305,0.461 -17.064,4.053 m 72.195,23.854 -6.227,-17.645 -5.791,17.645 12.018,0 z m -12.606,2.899 c 0,0 -4.808,15.085 -4.808,15.901 0,1.109 1.289,1.523 2.1,1.523 l 0.646,0 c 0.813,0 0.937,0.437 0.937,0.689 0,0.313 -0.164,0.826 -1.259,0.826 l -12.141,0 c -0.455,0 -1.516,0 -1.516,-0.826 0,-0.401 0.365,-0.689 0.885,-0.689 0,0 1.793,-0.123 1.803,-0.126 2.644,-0.337 3.867,-2.372 5.089,-5.761 l 14.447,-39.66 c 0.767,-2.111 1.07,-2.681 1.691,-2.681 0.597,0 0.896,0.437 1.679,2.474 0,0 12.033,31.334 14.858,38.374 2.267,5.615 4.141,6.722 5.371,7.071 0.714,0.247 1.515,0.364 2.442,0.364 0.231,0 0.937,0 0.937,0.693 0,0.374 -0.272,0.754 -1.577,0.754 l -10.286,0.003 c -1.181,-0.056 -1.892,-0.09 -1.892,-0.727 0,-0.377 0.244,-0.649 0.643,-0.738 0.068,-0.022 0.384,-0.065 0.384,-0.649 0,-0.186 -0.08,-0.479 -0.188,-0.752 0,0 -6.122,-16.062 -6.122,-16.064 l -14.123,0 z M 314.08,292.601 c 3.784,0.068 5.383,0.582 6.348,2.028 0.655,1.005 0.847,1.438 1.051,1.896 0.154,0.414 0.38,0.841 0.921,0.841 0.304,0 0.628,-0.229 0.628,-0.878 0,-0.721 -1.462,-6.842 -1.462,-6.842 -0.223,-0.888 -0.387,-1.469 -0.885,-1.283 l -0.804,0.315 c -0.56,0.201 -0.968,0.361 -1.991,0.442 l -31.446,0 c -1.027,-0.081 -1.435,-0.241 -1.994,-0.442 l -0.805,-0.315 c -0.497,-0.188 -0.655,0.396 -0.884,1.28 0,0 -1.462,6.124 -1.462,6.845 0,0.646 0.324,0.878 0.63,0.878 0.538,0 0.771,-0.427 0.922,-0.844 0.2,-0.455 0.393,-0.888 1.051,-1.893 0.962,-1.446 2.563,-1.963 6.348,-2.028 l 8.979,-0.009 0,26.475 c 0,6.044 0,11.263 -0.322,13.919 -0.266,1.938 -0.597,3.032 -1.592,3.23 -0.689,0.151 -1.379,0.244 -1.852,0.244 -0.601,0 -0.813,0.374 -0.813,0.689 0,0.819 0.924,0.819 1.32,0.819 l 12.41,0 c 0.396,0 1.323,0 1.323,-0.819 0,-0.315 -0.214,-0.689 -0.816,-0.689 -0.464,0 -1.153,-0.093 -1.833,-0.244 -1.005,-0.198 -1.33,-1.249 -1.611,-3.237 -0.313,-2.649 -0.313,-7.868 -0.313,-13.912 l 0,-26.475 8.954,0.009 z M 126.7,289.107 c -0.869,0 -1.583,0 -1.583,0.758 0,0.494 0.284,0.661 0.815,0.748 0.353,0.053 0.687,0.13 1.911,0.309 1.71,0.3 2.177,0.758 2.241,4.87 l 0.019,32.54 c 0,5.8 -0.331,7.398 -1.666,7.779 -0.829,0.274 -1.874,0.37 -2.522,0.37 -0.604,0 -0.82,0.362 -0.82,0.681 0,0.819 0.863,0.819 1.327,0.819 l 12.837,0 c 0.436,0 1.459,0 1.459,-0.819 0,-0.331 -0.22,-0.681 -0.822,-0.681 -0.17,0 -1.731,-0.019 -3.102,-0.374 -1.388,-0.411 -2.117,-1.623 -2.247,-7.089 0,0 -0.764,-28.255 -0.808,-29.816 4.598,5.015 31.96,34.256 32.646,34.878 3.633,3.642 4.224,4.148 4.845,4.148 0.801,0 1.067,-0.695 1.067,-4.826 l -0.063,-37.246 c 0,-3.803 0.272,-4.968 2.103,-5.346 0.742,-0.188 1.163,-0.188 1.466,-0.188 0.739,0 1.005,-0.405 1.005,-0.748 0,-0.754 -0.943,-0.754 -1.45,-0.754 l -12.012,0 c -0.59,0 -1.579,0 -1.579,0.754 0,0.495 0.277,0.748 0.815,0.748 0.421,0 1.874,0.056 3.055,0.31 1.713,0.448 2.174,1.633 2.238,5.744 l -0.033,31.48 c -1.036,-1.139 -33.777,-36.938 -33.777,-36.938 -0.891,-0.961 -1.729,-2.111 -2.604,-2.111 l -4.761,0 z m -47.545,80.311 c -0.315,-4.1 -3.846,-5.797 -7.563,-5.797 -6.87,0 -9.801,5.605 -9.801,11.845 0,6.307 2.9,11.854 9.801,11.854 3.657,0 7.154,-2.174 7.816,-5.989 l -2.205,0 c -0.572,2.836 -3.088,4.097 -5.611,4.097 -5.831,0 -7.593,-5.293 -7.593,-9.961 0,-4.663 1.762,-9.956 7.593,-9.956 2.585,0 4.98,1.132 5.358,3.908 l 2.205,0 z m 11.535,1.132 c 5.043,0 7.374,4.224 7.374,8.385 0,4.158 -2.331,8.382 -7.374,8.382 -5.043,0 -7.374,-4.224 -7.374,-8.382 0,-4.162 2.331,-8.385 7.374,-8.385 m 5.327,8.385 c 0,-2.928 -1.515,-6.65 -5.327,-6.65 -3.812,0 -5.327,3.723 -5.327,6.65 0,2.931 1.515,6.65 5.327,6.65 3.812,0 5.327,-3.72 5.327,-6.65 m 8.725,-1.197 c 0,-2.839 1.423,-5.454 4.539,-5.454 2.585,0 4.161,1.61 4.161,4.35 l 0,10.212 1.893,0 0,-9.896 c 0,-1.827 -0.411,-6.399 -5.578,-6.399 -2.05,0 -3.846,0.915 -4.949,2.869 l -0.065,-0.062 -0.093,-2.332 -1.954,0 c 0.063,1.07 0.161,2.332 0.161,3.563 l 0,12.258 1.886,0 0,-9.109 z m 18.024,0 c 0,-2.839 1.423,-5.454 4.539,-5.454 2.585,0 4.162,1.61 4.162,4.35 l 0,10.212 1.892,0 0,-9.896 c 0,-1.827 -0.408,-6.399 -5.577,-6.399 -2.05,0 -3.847,0.915 -4.95,2.869 l -0.065,-0.062 -0.092,-2.332 -1.954,0 c 0.062,1.07 0.16,2.332 0.16,3.563 l 0,12.258 1.886,0 0,-9.109 z m 17.052,1.639 c 0.064,3.373 1.604,6.208 5.481,6.208 2.238,0 4.1,-1.608 4.572,-3.781 l 1.985,0 c -0.98,3.781 -3.339,5.513 -7.154,5.513 -4.728,0 -6.935,-4.063 -6.935,-8.382 0,-4.285 2.365,-8.385 7.062,-8.385 5.293,0 7.216,3.88 7.216,8.827 l -12.227,0 z m 10.178,-1.735 c -0.22,-3.054 -1.858,-5.357 -5.136,-5.357 -3.092,0 -4.727,2.585 -4.978,5.357 l 10.114,0 z m 19.254,-1.762 c -0.157,-3.373 -2.804,-5.327 -6.051,-5.327 -4.692,0 -7.061,4.097 -7.061,8.382 0,4.322 2.207,8.382 6.935,8.382 3.596,0 5.673,-1.794 6.177,-5.42 l -2.05,0 c -0.157,2.176 -1.854,3.688 -4.315,3.688 -2.9,0 -4.697,-3.058 -4.697,-6.682 0,-3.593 1.797,-6.619 4.697,-6.619 2.615,0 4.158,1.165 4.315,3.596 l 2.05,0 z m 6.144,6.743 c 0,2.143 -0.223,4.696 3.784,4.696 0.631,0 1.323,-0.127 1.923,-0.284 l 0,-1.639 c -0.507,0.157 -1.075,0.191 -1.642,0.191 -1.45,0 -2.204,-0.789 -2.174,-2.238 l 0,-10.593 3.593,0 0,-1.731 -3.593,0 0,-4.189 -1.892,0.816 0,3.373 -3.147,0 0,1.731 3.147,0 0,9.867 z m 33.638,4.223 0,-1.889 -11.445,0 0,-20.866 -2.047,0 0,22.755 13.492,0 z m 6.579,-22.755 -2.204,0 0,2.362 2.204,0 0,-2.362 z m -0.154,6.934 -1.889,0 0,15.82 1.889,0 0,-15.82 z m 9.42,15.821 0,-14.089 3.592,0 0,-1.731 -3.592,0 0,-2.016 c -0.096,-2.272 -0.034,-3.562 2.557,-3.562 0.374,0 0.782,0.062 1.162,0.127 l 0,-1.515 c -0.565,-0.127 -1.199,-0.35 -1.799,-0.35 -2.705,0 -3.81,1.233 -3.81,3.941 l 0,3.373 -3.185,0 0,1.731 3.185,0 0,14.089 1.89,0 z m 8.128,-7.469 c 0.064,3.373 1.607,6.208 5.484,6.208 2.238,0 4.097,-1.608 4.569,-3.781 l 1.985,0 c -0.978,3.781 -3.339,5.513 -7.154,5.513 -4.724,0 -6.932,-4.063 -6.932,-8.382 0,-4.285 2.365,-8.385 7.062,-8.385 5.293,0 7.216,3.88 7.216,8.827 l -12.23,0 z m 10.184,-1.735 c -0.222,-3.054 -1.86,-5.357 -5.138,-5.357 -3.089,0 -4.728,2.585 -4.981,5.357 l 10.119,0 z m 24.258,-1.951 c -0.191,-2.585 -1.515,-3.404 -3.753,-3.404 -1.985,0 -3.624,0.597 -3.874,2.742 l -2.016,0 c 0.473,-3.249 2.896,-4.477 5.921,-4.477 3.499,0 5.673,1.607 5.611,5.231 l 0,7.5 c -0.031,1.228 0.096,2.489 0.157,3.562 l -1.954,0 -0.062,-2.334 -0.065,0 -0.092,0.22 c -0.696,1.326 -2.808,2.588 -4.95,2.588 -2.928,0 -5.263,-1.797 -5.263,-4.885 0,-2.146 1.293,-3.784 3.182,-4.57 2.111,-0.915 4.854,-0.597 7.157,-0.724 l 0,-1.449 z m -8.289,6.744 c 0,2.143 1.639,3.153 3.562,3.153 4.128,0 4.916,-3.404 4.728,-6.715 -2.682,0.092 -8.29,-0.412 -8.29,3.562 m 17.617,-4.697 c 0,-2.839 1.419,-5.454 4.535,-5.454 2.585,0 4.162,1.61 4.162,4.35 l 0,10.212 1.889,0 0,-9.896 c 0,-1.827 -0.408,-6.399 -5.574,-6.399 -2.053,0 -3.847,0.915 -4.95,2.869 l -0.062,-0.062 -0.096,-2.332 -1.954,0 c 0.064,1.07 0.154,2.332 0.154,3.563 l 0,12.258 1.896,0 0,-9.109 z m 27.009,6.777 -0.064,-0.126 c -1.292,1.889 -3.216,2.931 -5.42,2.931 -4.696,0 -6.492,-4.478 -6.492,-8.446 0,-4.1 1.796,-8.32 6.492,-8.32 2.111,0 4.316,1.011 5.42,2.869 l 0.064,-0.068 0,-9.263 1.89,0 0,19.196 c 0,1.228 0.096,2.486 0.157,3.559 l -1.954,0 -0.093,-2.332 z m -0.065,-5.958 c 0,-3.215 -1.419,-6.27 -5.107,-6.27 -3.59,0 -4.758,3.336 -4.758,6.363 0,2.934 0.853,6.935 4.477,6.935 4.129,0 5.388,-3.436 5.388,-7.028 m 29.36,8.289 0,-1.889 -11.439,0 0,-20.866 -2.053,0 0,22.755 13.492,0 z m 4.693,-7.469 c 0.064,3.373 1.607,6.208 5.484,6.208 2.238,0 4.097,-1.608 4.569,-3.781 l 1.988,0 c -0.98,3.781 -3.343,5.513 -7.157,5.513 -4.728,0 -6.932,-4.063 -6.932,-8.382 0,-4.285 2.365,-8.385 7.058,-8.385 5.294,0 7.22,3.88 7.22,8.827 l -12.23,0 z m 10.178,-1.735 c -0.217,-3.054 -1.858,-5.357 -5.133,-5.357 -3.092,0 -4.727,2.585 -4.98,5.357 l 10.113,0 z m 16.011,-1.951 c -0.186,-2.585 -1.512,-3.404 -3.747,-3.404 -1.985,0 -3.63,0.597 -3.88,2.742 l -2.016,0 c 0.473,-3.249 2.896,-4.477 5.923,-4.477 3.497,0 5.674,1.607 5.612,5.231 l 0,7.5 c -0.034,1.228 0.092,2.489 0.157,3.562 l -1.954,0 -0.068,-2.334 -0.059,0 -0.096,0.22 c -0.692,1.326 -2.804,2.588 -4.946,2.588 -2.935,0 -5.263,-1.797 -5.263,-4.885 0,-2.146 1.293,-3.784 3.182,-4.57 2.115,-0.915 4.854,-0.597 7.154,-0.724 l 0,-1.449 z m -8.289,6.744 c 0,2.143 1.642,3.153 3.562,3.153 4.131,0 4.919,-3.404 4.728,-6.715 -2.678,0.092 -8.29,-0.412 -8.29,3.562 m 17.806,-5.105 c 0.064,-3.027 1.546,-5.046 4.35,-5.046 0.381,0 0.788,0.096 1.166,0.127 l 0,-1.827 c -0.631,-0.034 -1.259,-0.063 -1.89,-0.034 -1.576,0.064 -2.995,1.199 -3.562,2.808 l -0.064,0 -0.093,-2.332 -1.954,0 c 0.062,1.07 0.188,2.332 0.157,3.563 l 0,12.258 1.89,0 0,-9.517 z m 11.504,0.408 c 0,-2.839 1.419,-5.454 4.539,-5.454 2.581,0 4.158,1.61 4.158,4.35 l 0,10.212 1.896,0 0,-9.896 c 0,-1.827 -0.412,-6.399 -5.581,-6.399 -2.05,0 -3.843,0.915 -4.946,2.869 l -0.065,-0.062 -0.093,-2.332 -1.954,0 c 0.063,1.07 0.155,2.332 0.155,3.563 l 0,12.258 1.892,0 0,-9.109 z m 18.183,-13.647 -2.204,0 0,2.362 2.204,0 0,-2.362 z m -0.159,6.934 -1.889,0 0,15.82 1.889,0 0,-15.82 z m 7.501,6.713 c 0,-2.839 1.419,-5.454 4.542,-5.454 2.581,0 4.155,1.61 4.155,4.35 l 0,10.212 1.896,0 0,-9.896 c 0,-1.827 -0.408,-6.399 -5.581,-6.399 -2.047,0 -3.843,0.915 -4.946,2.869 l -0.065,-0.062 -0.093,-2.332 -1.954,0 c 0.062,1.07 0.158,2.332 0.158,3.563 l 0,12.258 1.889,0 0,-9.109 z m 27.254,-6.709 1.954,0 c -0.063,1.069 -0.158,2.328 -0.158,3.555 l 0,9.488 c 0,3.151 0.158,6.459 -3.339,8.101 -1.262,0.597 -2.111,0.724 -3.59,0.724 -2.872,0 -6.276,-0.977 -6.276,-4.254 l 2.051,0 c 0.219,1.889 2.454,2.52 4.473,2.52 2.459,0 4.728,-1.731 4.793,-4.381 l 0,-2.965 -0.065,0 c -0.915,1.864 -3.085,2.965 -5.135,2.965 -4.762,0 -6.809,-3.623 -6.809,-7.971 0,-4.288 1.923,-8.258 6.746,-8.258 2.301,0 3.939,1.101 5.197,2.928 l 0.065,-0.123 0.093,-2.329 z m -0.093,7.559 c 0,-3.026 -1.673,-6.301 -5.074,-6.301 -3.438,0 -4.888,3.463 -4.888,6.363 0,2.899 1.481,6.399 4.95,6.399 3.624,0.001 5.012,-3.372 5.012,-6.461"
         id="path6048" />
    </g>
  </g>
</svg>
